<svg xmlns="http://www.w3.org/2000/svg" fill="#fff" viewBox="0 0 375.6 685.7"><path d="m293.1 281.2-.2.3-.6 21.4.2.9c4 7.5 5.7 13.7 3.3 21.2-.8 2.5-1.9 4.5-2 7.2q-.3 10.7.2 18.6a1 1.1 79.7 0 1-.8 1.1q-.8.3-1.4.8-.4.4-.4 1l-.7 20.4q0 .4.2.7a26 26 0 0 1 2.7 23.8q-1 2.5-1 3.4-.4 9.8 0 19a1 1 79.8 0 1-.6 1q-2 .5-2 2.8 0 8.9-.7 15.5c0 1 .2 2.4.8 3.3 4.2 7 5.9 14.5 3.6 22.4-.8 2.7-2.8 5.2-2.8 8q-.5 28.9-1 47.7 0 .7.7 1l84.4 48.8a1.2 1.2 0 0 1 0 2L190 685.6q-.3.2-.5 0l-189-109a1 1 44.6 0 1 0-1.9l78.8-47a2 2 76.3 0 0 .9-1.5q1.1-27.5 2-58.1.1-3.2-.4-4.5c-3.4-8-3.4-15.8 1-23.2 1.1-1.8 2.1-3 2.2-5l.6-15a1 1 19.4 0 0-.3-.9q-1.8-1.3-1.8-2.7l1.2-19.4q.2-3-.4-4.4c-3.3-8.4-2.6-16.4 3.2-23.3q.3-.4.3-1l.6-20.9q0-.5-.4-.6-1.8-.8-1.7-2.6l1-19.3q.2-3-.3-4.3a21 21 0 0 1 2.9-22.4 2 2 64.6 0 0 .4-1.3l.7-20.5a1 1 0 0 0-.8-1.2q-1-.5-.9-1.9.7-9.2 1.2-20.6.2-1.8-.4-3.5-5.2-12.5 3-23.1l.3-.7.7-20.9a1 1 17.9 0 0-.5-1c-1.1-.7-1.4-1.3-1.3-2.9q.4-11.9 1-19.6c.5-4.2-1.5-6.6-1.8-10.7q-.7-8.2 4.5-14.9c.7-1 1-1.7 1-3q.2-17.3.7-35c.2-4.9-.6-9.8-.5-13.7.3-16.6 17.3-28.8 31.5-34.6a1 1 0 0 0 .8-1.1q0-8.7.4-19 0-1.4-.5-2.3-5.6-10.6-1.4-19.9c5.3-11.9 23.5-20 36-23.1q36.6-9 72.7 1.8 13.7 4 24.7 12.7c8.4 6.6 13.4 15.5 10 26.5q-.4 1.4-1.8 4.3-1 2.2-1 4.5l-.5 16.2a2 2 18 0 0 .7 1.3l7.3 4.8q11.5 7.1 19 20a28 28 0 0 1 3.3 18.8c-.4 2-1 4.8-1 7.5q-.4 14.1-.8 20c-.2 1.9-1.2 4-1.2 6.2q0 3.6-.5 11.1a3 3 28.2 0 0 .5 1.7 23 23 0 0 1 2.6 22q-.9 2.4-1 5-.3 11.4.1 18.3.1 1.5-1.5 2.2-1 .5-1.1 1.7l-1 20.4.3.6q7.3 11.5 2.6 23.2-1 2.4-1 5-.4 13.2.2 19.2 0 .5-.4.8zM198.8 3l-.5-.5h-14.8l-.5.5-.2 5.6.5.5h14.8l.5-.4zm16.5.6-.3-.3-13.6-1-.3.3-.4 6a.3.3 0 0 0 .3.4l13.6 1 .3-.3zm-34.7 0-.5-.4-12.4 2.3-.3.4-.2 6 .5.4 12.4-2.3.3-.4zM230.7 7l-.5-.6-12-2.2a.6.6 0 0 0-.7.6l-.2 5.4.5.6 12 2.2a.6.6 0 0 0 .8-.6zm-65.9 0q0-.7-.8-.5l-9.8 3.3q-.2.1-.2.4v6.6a.2.2 0 0 0 .3.2l9.9-3.8q.6-.2.6-.9zm68.3 1-.1 5.4q0 .7.6 1l10.2 4 .3-.1.2-6.9q0-.3-.3-.4l-10-3.6q-.8-.3-.9.5M143 23.2l7.7-4.6a2 2 0 0 0 .9-1.6v-5q0-1.6-1.3-.8l-7.3 4.4-.3.5v7zM198.7 63a109 109 0 0 0 45.6-7.5q10.3-4.3 16.1-12c1.8-2.3 2.7-4 1.2-6.8q-3.7-7.3-10.8-11.7c-15-9.5-33-13.3-50.7-13.8s-35.8 2.4-51.4 11q-7.3 4-11.4 11.1c-1.6 2.8-.8 4.6.9 7q5.4 7.9 15.4 12.7c14 6.8 29.3 9.6 45.1 10m56-38.3.3-.1.4-6.9-.3-.5-7-4.7q-1.1-.8-1.2.7l-.3 5a2 2 0 0 0 .9 1.6zM139.5 19l-2.2 2.6c-1.4 1.7-1.7 6-1.6 7.8q0 1.7 1.2.4c1.5-1.7 3.6-3.9 3.6-5.5q.1-2-.3-5 0-1-.7-.3m122.2 12.9q.4 1 .8 1.4.7.8.6-.3c-.3-3.4-1.6-10.5-4.7-12.6q-.5-.3-.6.3-.6 4.2-.3 5.5c.6 2.6 3.6 4 4.3 5.7M137 48.9c-2-3-3.5-4.6-4-8a32 32 0 0 1 1.2-17.4.3.3 0 0 0-.5-.3c-6.7 7.1-6.7 16.6-.8 24.4q7.1 9.6 19.2 15 13.5 6 27.1 8.4c21 3.7 41.8 3.3 61.9-3.7q11.3-4 20.5-11.9c7.8-6.7 11.7-17 6-26.3q-1.2-2.1-1.9-2.8t-.4.2q1.8 7.4 1 15.8c-.7 5.8-5.5 11.7-10.1 15-16.4 11.2-39.2 14.5-59.1 13.5q-23.2-1-43-9.4c-6-2.5-13.5-7-17-12.5m-1.2-7.2q-.4-.3-.3.2.7 2.5 1.6 3.6t1-.4q0-1.7-2.3-3.4M260 49.1l1 .5.2-.1.4-.8A.6 5 27.1 0 0 263 44h-.2a.6 5 27.1 0 0-2.7 4l-.5.9zm-112.2 6.3.9-1a.4.4 0 0 0 0-.6l-.3-.2a9.7.5 41.7 0 0-7.5-6l-.8.8a9.7.5 41.7 0 0 6.9 6.8l.2.2a.4.4 0 0 0 .6 0M257 50.6l-6 4.4q-.8.6-.8 1.5v.8q0 1.3 1.1.5l5.3-3.8q1-.7 1-1.8V51q0-.7-.7-.3m-119.7 9.2q4.4 3.7 8.2 6a120 120 0 0 0 76.3 13.8 75 75 0 0 0 44-21.8q.9-1 .4-2.4-.1-.5-.5-.2-12.8 11.7-30 16.2a137 137 0 0 1-67.3-.5 70 70 0 0 1-35.5-19q-.8-.9-.8.2c-.1 3.6 2 5 5.2 7.7m14-5-.7 2v.3l11.7 5a1 1.2 23.1 0 0 1.3-.7v-.2a1 1.2 23.1 0 0-.4-1.5l-11.5-5a.2.2 0 0 0-.3.2m84 10 13-5.4.1-.4-.2-.5a2 1.8 67.5 0 0-2.4-1l-10 4.1a2 1.8 67.5 0 0-1 2.5l.2.5zm-93.7 7q6 1.9 7.7 7.7l1.3 3.8q.1.2.4-.1l.4-.8a7 7 0 0 1 7.2-4.4c5.4.4 8 5.1 10.6 9.5q.5.7 2.9 1.5.5.1.8-.3 3-3.2 4-3.4 9.7-2 14.1 6.5l1 2q.1.3.3 0 4.2-8 11-8.6c6.8-.5 11 2.9 13.8 8.5q.4.8.8 0 3.7-8 11-9.4 5-1 7.6 2.8.4.4 1 .4l3-.4q.7 0 .9-.7l.8-2.7c2-4.7 7.9-9 12.2-4q1 1 1.3-.5 1.3-9 9.9-10.6.5 0 .5-.6l.2-6.3q0-.8-.5-.2c-14 13.6-36.2 20.8-55.4 21.6-22.5 1-47.6-4.3-66.6-15.7q-4.7-2.8-10.7-8.3-1.2-1.2-1 .5l.3 2.8a4 4 19.8 0 0 1.2 2.5c2.4 2.5 2.6 5.8 2.9 9.2q.2 2.5 1.7.5l1.7-2.2a2 2 0 0 1 1.7-.6m39.8-7.5a.3.3 0 0 0-.2-.4l-14.5-3.3-.3.2-.5 2.3.2.3 14.5 3.3.3-.2zm50.9-1.8-.3-.3-13.7 2.6-.2.3.5 2.6.3.2 13.7-2.6.2-.3zm-33.7 3.4-.3-.4-14.3-1.4-.4.3-.2 2.4.3.4 14.3 1.4.4-.3zm17.4-.3-.6-.5-14 .4-.6.6v2a.6.6 0 0 0 .7.6l14-.4a.6.6 0 0 0 .6-.7zm-82 10.6q-.5-2.4-.8-7.4 0-.2-.2-.2h-.4a.3.3 0 0 0-.4.2v15.8q0 1.6 1.2 2.6l1.5 1.3q.7.5.7-.3v-9.3q0-.5-.3-.8-1-1.1-1.2-1.9m131.8-4a1 1 0 0 0-.9-.9h-.2a1 1 0 0 0-.9.9l-.3 7.4a1 1 0 0 0 .9.9h.2a1 1 0 0 0 .9-.9zm-140.2 2.1a2 2 73.1 0 0-.8 1.5l-.1 5.5q0 1 .8.5l3.4-1.7q.6-.3.6-1l.2-6.7q0-1-.8-.5zm147 2-3.2-2.5q-.9-.6-.9.4V81q0 .7.5 1l3.3 1.8q.9.5.9-.5v-5.5a2 2 19.2 0 0-.7-1.4m-133-.2q-.6.4 0 .6l4.4.8q2.7.6.5-1.3-.7-.7-2.4-1.4-.5-.2-1 .2zm120 5.3q.7-.1.7-.8.3-2.8.3-4.7t-1.2-.3q-1.3 2-2 5.5 0 .7.7.6zm-137.1-6.1-.3-.1-6.2 4.5a3 3 73 0 0-1.3 2.4l-.1 5.2q0 1.5 1.1.7l6.3-4.6q.2-.2.2-.5zm19 4a1 1 0 0 0-.8-.8h-1.8a1 1 0 0 0-1 .9v9.8a1 1 0 0 0 1 .9h1.8a1 1 0 0 0 .8-1zM276 79q-.6-.4-.7.3l-.1 5.1a2 2 0 0 0 .6 1.2l4.8 3.8q1 .6 1-.5c.8-4.7-1.5-7-5.6-9.9m-129.6 22a.5.5 18.6 0 0 .7-.4q.1-5.8.7-12.5.2-1.5-1.7-7.5-.3-.8-.7-1-1-.3-1.6.8l-.2.4-.5 18.1a1 1 0 0 0 .9 1q1.3.2 2.4 1m107.4 18h.3l.1-.2q-.3-8.4 0-15.2c.4-6 .2-10.2.2-18 0-2.9-3-7.5-6.4-5.4q-3 1.8-4.3 6-.2.6.3.8c7.1 2.5 9.6 9.3 9.6 16.2q-.1 8 .1 15.8zM150.1 116q.6-4.8.6-14.4c0-9.4 6.2-13 14.5-14.6q.5-.1.3-.6c-2.5-4.6-8-9.2-12.3-3.1q-1.4 2-1.7 3.5-2 13.8-1.5 29.2 0 1.4.1 0M258 82.8q-.8.4-.8 1.2l-.3 12q0 1 1 1l1.4-.3a1 1 0 0 0 .7-.7l.4-13.7q0-.8-.7-.4zm4.5 27.5q0 .8.5.2 1.3-1.5 1.5-3.6 1-10.7.9-23.8 0-.8-.8-.6l-.9.1a1 1 85.4 0 0-.8 1zm-133.3-7.4.4-19.7a.5.5 0 0 0-.7-.4q-5 2-10 5.3c-4 2.7-12.1 10.3-9.2 16 4.2 8 10 13.5 18.3 18q13 7 27.9 10.6 28.2 6.8 59 6.3 17-.2 34-4.5c13.6-3.4 28.4-9.9 36.2-21.7 1.4-2.2 3.6-6.1 2.6-8.8q-1.3-3.8-3.8-7.8-2-3.3-6-6-6.2-4.4-9-6.2a.8.8 15.7 0 0-1.2.7q0 5.5-.3 13.2c-.3 8.4-.1 12.4-5.2 17.9a50 50 0 0 1-22.4 13.6q-14.7 5.3-27.4 5.8-14.8.6-19.4.4-16.3-1-37.5-8.3c-9.8-3.4-20-9.7-25.2-18.8q-1.2-2.1-1.1-5.6m-20.3-8a1.3 5.4 16.1 0 0 2.8-4.8 1.3 5.4 16.1 0 0 .2-5.5 1.3 5.4 16.1 0 0-2.7 4.8 1.3 5.4 16.1 0 0-.3 5.5m175.9-1.6c1.4 2 2.1 3.4 3.4 5q.3.3.3-.2-.4-6-3.8-11.6h-.3q-1.6 3.8.4 6.8m-64 16.6h-.4q-1.2-.3-1.1-1.5c.6-8.3 7.1-15.6 14.3-19.5q.4-.3.2-.7-1-1.8-3-1.7c-6.2.3-8.5 3.9-11.2 8.6q-1.5 2.6-1.5 5l-.3 31.5q0 1.1 1.1 1l1.5-.3a1.3 1.3 85.2 0 0 1-1.3l.5-17.7q.1-1.6.4-3.1.6-4.3 2-7.6 2.7-5.4 8.2-8.5c6.6-3.7 15.7-1.5 16.2 7.3q.3 7.2-.2 21 0 .9.8.5l1.2-.7q.7-.3.8-1.1v-16.3q0-6.3-1.5-9.5-3.7-7.8-11.5-5.6c-7.6 2.1-16.6 10.7-16.5 19.3q0 .8-1 .9M107.2 88.3l.3-.8q0-1.3-.8-.3-9.7 11.2-6.3 24c3.3 12.3 16.6 22.7 28 28.2q18.9 9.2 39.1 12.8c31.1 5.6 62.7 5.3 92.7-5a92 92 0 0 0 18.1-9c15.6-9.6 24.5-27.2 12.6-43.9q-.5-.7-.4.2c.8 4 .5 7.8.5 12.8q0 6.1-.7 9.1c-3.6 14.2-18.7 22.8-31.7 27.6s-26.1 7-40.5 8c-13.8 1-27 0-39.7-1.6q-20-2.6-37.9-9.4-10.1-4-15.8-7.6c-9.5-6.2-19.9-15.5-20-27.8q-.1-9.7 2.5-17.3m72.2 5c6.6 5 9 12.6 8.6 20.8q-.4 8.5-.5 17.7a1 1 3.1 0 0 1 1.1l1 .1a1 1 2.8 0 0 1-.8l.3-31.3q.1-4.3-3-9.2c-2.7-4.5-8-6.2-12.3-2.4a.7.7 0 0 0 0 1.2zm13.3 39.3.5.6H214q1 0 1-1 .5-17.4.5-31.5 0-3.2-.6-5c-2-6.5-7.8-9.7-14.3-7-3.4 1.4-7.2 5.8-7.3 10q-.2 4.3-.5 34m-36.3-28.5c.2-9.4 10.4-12.5 17.5-8.3 5.6 3.4 9.5 8 9.4 14.8l-.3 20.6q0 1 .9 1.1l.5.1q.8.2.9-.7.4-16.3.3-20.4 0-11.7-10.3-18.1-3.6-2.3-6-3a13 13 0 0 0-15.6 7.3q-1 2.7-1.3 10.7l-.4 13.6q0 1.4 1.2 1.9l1.5.6q1.2.5 1.3-.8zm-23.6-13.9q-1-.8-1 .5l-.1 11.7q0 4.6 3 8.3a.3.3 26 0 0 .6-.1l.5-16.4a3 3 21.2 0 0-1-2.3zm7.7 15.4.4-12.8q0-1-1-.7h-.6a1.4 1.4 85.5 0 0-1 1.4l-.7 19.1a3 3 0 0 0 1.4 2.7l7.6 5.4q.9.6.9-.5v-7.7q0-1.1-1-1.6-3.3-1.6-5.7-4.4-.3-.4-.3-1m98.3-11q-3.1-.4-1.8 2.4c2.2 4.9 1 11.1.4 18.7l.2.4 8.3 5.8a.1.1 16.8 0 0 .2-.2l.2-17.6q0-3.2-.9-5.3a7.8 6.9 1 0 0-4.4-4zm-74.2 12.8c0-5.2.3-8.3 4.5-10.2q.7-.3 0-.4c-10-1.4-10.7 5.4-10.6 13.3q0 7.6-.3 12.4 0 .9.6.3l5.3-5q.7-.5.6-1.5zm68.8-10.7c-5.9 2.8-7.5 7.7-8.8 13.7q0 .6.5.4l9.2-2.6c3.5-1 1.1-9.2 0-11.2q-.2-.6-.9-.3m-52.9 14.4q.6 0 .6-.5-.7-7.8-7.5-11.5-2-1.2-3.9 0c-3 1.6-3 5.7-2.5 8.7q.2.9 1 1zm79-10.5-1.4-.5-.3.1-.3.9a.8 4.8 20 0 0-.9 4.8h.2a.8 4.8 20 0 0 2.4-4.2l.4-.9a.2.2 0 0 0-.2-.3m-112.2 6c-.2-2.3-.4-3.8-3-4a1 1 0 0 0-.9.8q0 3 3.2 5.2.5.4.6-.2.2-.5 0-1.9m113-1.4c-1.7 1.7-4 3.4-4 4.8v7.3a.3.3 0 0 0 .4.2l2.5-2.3c2.7-2.6 2.1-6.5 1.6-9.8a.3.3 0 0 0-.5-.2m-149.7 11a5 1.2 74.2 0 0-.2-5.3 5 1.2 74.2 0 0-2.6-4.5 5 1.2 74.2 0 0 .2 5.2 5 1.2 74.2 0 0 2.6 4.6m118.5-4.4-4.2 1.4q-.5.2-.5.7v3.5q-.1.6.5.5 2.3-.4 5.8-1.4l4.1-1.4q.5-.2.6-.7V111q0-.7-.6-.6-2.2.4-5.7 1.4m-62.2-.5v3.3a1.3 1.3 6.8 0 0 1 1.2l12.3 3q.6.1.6-.5l.1-4.3q0-.5-.4-.6l-13.2-2.4q-.4 0-.4.3M119 125.7c0-2.4.6-5.3-.4-6.3q-3-3.1-5-5.5a.3.3 0 0 0-.5.1l-.3 3.5c-.1 3.9 3 6.4 5.7 8.5a.3.3 0 0 0 .5-.3m168.1-11.4q-3.5 5.4-8.8 9a2 2 0 0 0-1 1.8v5.2q-.1 1.1.7.3c5-4.3 9.4-9.4 9.6-16.2q0-.9-.5-.1m-2 32q-1.2 0-1.2 1.4v2.3q0 .6.7.7l4 .4.6-.6.4-12.3q0-1.4 1.4-1.6h.4q1.2-.2 1 1l-.4 5q0 .7.7 1h.5q1-.2 1-1.2l.5-16.9q0-1-.4-.1-4.5 8-13.5 13.9t-14.1 7.9q-34 12.8-70.9 10.7a182 182 0 0 1-63.1-13.8c-12.5-5.5-25.5-13.5-32-25.7q-.7-1.2-.7.1-.9 36.8-1 46.6 0 2.3.4 4.5.3 1.8 1.4 0l.2-.4 1-28.4q.1-1.9.6-5.5.5-3.1 3.5-2.6.5 0 .8.4c2.2 2.9 1.3 9.9 1 13q0 1.5 1.2 2l2 .8q1.4.6 1.7-.9.6-2.8 2.3-5.7a1.3 1.3 0 0 1 2-.4c3.4 3 3.6 9.6 2.8 13.7q-.3 1.6 1.2 1.8l1.6.3q1.4.3 1.5-1.2c.1-2.8 0-4.4 2.1-7.1 1-1.3 2.8-1.7 4.2-1.2 7 2.3 7 8.4 4.6 14.3a1 1 16.1 0 0 .7 1.2l5.1 1a1 1 4.6 0 0 1.2-1c0-2.9-.6-6 1-7.9 3.5-4.1 9-2 11.6 2q3.1 4.9.5 10.4a.6.6 0 0 0 .5.9l5.6 1a.7.7 0 0 0 .9-.8c-.4-3-.8-6.2 1.1-8.4 4-4.6 10.3-3 13.3 1.8q2.5 4 .3 8.7a1 1 0 0 0 .7 1.1l5.3.5.6-.5c0-1.6-.7-3.4-.4-5 2.3-11.6 22-6 15.7 6.3a.5.5 0 0 0 .5.7l5 .2a.6.6 0 0 0 .7-.8q-2.1-7.4 3.5-11a8.4 8.4 0 0 1 10.6.7c3.2 2.8 2 6.3 2 9.6q0 .9.8.9h4.3q1 0 .8-1c-1.5-6.7.5-11.7 7.6-13q4.8-.9 7 3.5c1 1.9.6 5.4.4 7.3a1 1 0 0 0 .6.8q2.7.3 4.8-.5a1 1 70.6 0 0 .5-1.1c-4.2-14 14.5-21.3 13-4.1q0 1.2 1.2 1l2.5-.5q1.2-.2 1-1.5c-.7-5-.3-12.4 5.2-14.7 5.2-2.2 6.6 6.3 7 9.3q0 .7.8.8h.3a1.2 1.4 83.4 0 0 1.1-1.2c.1-4-.3-16.3 5-16.4a1.3 1.3 0 0 1 1.4 1.3v1q-.1 1.1-1.3 1.2M245 124.9a.3.3 0 0 0 0-.5l-8.3-6.4a2 2 0 0 0-1.3-.3l-10.4 2.7q-.5.2-.5.7l-.3 9.9q0 .3.3.2 10.7-1.9 20.5-6.3m-86 1q10.3 3.8 21.2 5.5.4 0 .4-.4v-9.3q0-.5-.5-.6l-12.7-3-.4.1zm-37.1-5a.2.2 0 0 0-.3.2l-.2 6.7.3.6 6.8 4.4q1.2.8 1.3-.6l.2-5a2 2 0 0 0-.9-1.5zm143.8 11-.3 6.7a.3.3 0 0 0 .5.2l9-5.8.2-.2v-6.6q0-.2-.2 0l-9 5.3q-.2.1-.2.3M132.5 127a.2.2 11.9 0 0-.3.2l-.3 7.2.5.7 10.2 4.1a.1.1 11.8 0 0 .2 0l.3-7.6a.4.3 14.2 0 0-.3-.4zm13.4 5.4q-.4-.2-.5.3l-.2 7a1 1 0 0 0 .8 1l12.7 3.4q1 .3 1-.7l.2-6.4q0-.9-.8-1zM251.2 143q0 .8.8.6l10.6-3.6q.3 0 .3-.4v-7a.2.2 79.1 0 0-.3-.3l-10.7 4q-.7.3-.7 1zM106 147.3q.3-5.5 0-10.9 0-.3-.4-.3h-.3q-.5 0-.5.5-.6 13.9-.7 22.6 0 .9.3 1.3.4.6 1.4.5.5 0 .5-.5.4-3.8.5-9.7c0-1-.9-2.4-.8-3.5m56-2.3.2.3 15.6 2.9.3-.3.3-8.2-.3-.3-15.5-2.8a.3.3 0 0 0-.4.3zm86.7-8-11.5 2.6q-.7.1-.7.9l-.2 6.2q0 .8.7.6l11.2-2q.7-.2.7-.8l.2-7.1q0-.6-.4-.4m-51.5 4.6-.5-.5-15.6-1.5-.5.5-.2 7.9.4.4 15.6 1.5.5-.4zm37-1.4a.5.5 0 0 0-.6-.5l-14.7 1.7-.5.5-.2 7.5.5.5 14.8-1.8.5-.4zm-34.8 1.7v7.7l.5.5h14.5a1.5.6.1 0 0 1.5-.5v-7.7a1.5.6.1 0 0-1.5-.6h-14.5zm-83 13q2.7-4.3.4-9.4-.8-1.6-1 .2c-.5 3.6-2.1 6.7-2.2 10.4q-.2 5.7-.2 12.3l.1.3 5 7a.4.4 0 0 0 .7-.3q.4-8 .4-15 0-2.6-2.4-3.3a1.5 1.5 26.4 0 1-.8-2.2m177-7.6a1 1 0 0 0-.8-.8 1 1 0 0 0-1 .7l-1.3 24.3a1 1 0 0 0 .8.9 1 1 0 0 0 .9-.8zM111 151h-2l-.3.2-.2 10.6a.9 22.6 1.6 0 0 .2 22.6h.8a.9 22.6 1.6 0 0 1.5-22.6l.3-10.5zm18.1 5.3v-4.9q0-.4-.4-.5-.4-.2-.8.2-2 2-1.6 5.3 0 .7.8.7h1.3a1 1 .1 0 0 .7-.8m144.6-2.7q-1.3-1.4-2.7-.2-1.7 1.3-2 3l.2.9q.8 1.3 3.5 2.5a1.5 1.5 0 0 0 2.1-1q.9-3.2-1-5.2m8.9 6.2c-.1 1-1.2 1.8-2 2.6q-.4.4-.4 1l-.3 9.9q0 .7.5.2 2.7-3.4 2.8-7.9l.1-12q0-.5-.4-.2t-.3 1q.3 2.5 0 5.4m3.4-5.4-.9 31a.4.4 0 0 0 .6.3c2.3-1.8 2.3-7 2.3-10.1q-.2-10.3.6-21a1 1 0 0 0-.8-.7h-1q-.7-.1-.8.5M152.5 169c.4-1.6 1.6-3.5 1.6-4.9q0-4.8-4-7.3-2.9-2-4.8 1-.3.3-.3.8c0 3.2.4 5.4-1.6 8.3q-.3.5-.4 1.1l-.6 21.7.2.4 11.4 4.6a.5.5 0 0 0 .8-.5l.4-21.5a2 2 9.6 0 0-1-1.5q-.6-.2-1.5-1.3-.3-.4-.2-1m114.5-.7q-.7.3-1.2.8l-.4.7-.5 17.4q0 .6.5.2l6.5-4.6a1.5 1.6 72.9 0 0 .6-1.2l.5-18.5q0-.5-.4-.8-2.6-1.3-3.7-3.8-.7-1.8-.9 0-.2 2.7.4 7.5a2 2 0 0 1-1.4 2.3m26.8 5.6q-.4 1-2.6 1.4a.5.5 81.9 0 0-.5.6q1 7-3.4 12.1a62 62 0 0 1-28.7 17.5q-17 5.5-34.7 7.1-36.8 3.4-73.1-6c-15.6-4-31.8-10.4-43.6-20.9-4.6-4.2-10.2-12.3-10.3-18.2v-7.7q.2-2-.6-.2c-9.8 19.2 14 36 28.9 42.7a197 197 0 0 0 92.3 15.3q15.5-1 35.1-5.8a79 79 0 0 0 36.5-18.7c7-7 10.5-17.2 6.6-26.5q-1.1-2.8-1.3.3-.1 5.5-.6 7M255.3 160l.2.2q.3.1.3.4.2 2.3.7 3.5 1.7 4 2.4-.3l-.6-2.5c-1-3.3-3.9-3-6.1-1-3.8 3.2-1.4 7.2-1.6 11.3l-.3.7-2 1.4q-.4.3-.4.8l-.7 21 .2.2 9.7-4.2.3-.3.6-21.4q0-.5-.3-.8-3.8-3.8-2.4-9m-127.4.2-.5-.6h-.3l-.6.5-.6 21.6.5.6h.3l.5-.6zm-5.9.7-1.2 30.3q0 1 .7 1.5l.7.4q.7.5.8-.4l1.1-31.5q0-.8-.7-.8l-.7-.1q-.7 0-.7.6m54.1 14c-2.6-1.6-1.6-3.3-.9-5.7 1.7-5.9-4.9-11.6-9.7-7.2-1.8 1.7-.6 6.2-.6 8.3q0 .6-.4 1l-1.2 1.1q-.4.4-.4.8l-.7 22.8a1 1 6.2 0 0 1 1.1l12.3 2.3q.4 0 .4-.4l.7-23.2q0-.6-.5-1m99.8-12.4a.4.4 0 0 0-.5.5l-.9 31.9a.4.4 0 0 0 .7.4l1.7-1.3.2-.3 1-30.7a.4.4 0 0 0-.5-.4zm-174 11q-.3.3-.1.6 1.3 3.4 3.6 6.5.9 1.3.9-.2v-15.8q0-1-1.1-1.2h-.5q-.9-.1-.9.8 0 5.1-2 9.2m95 2.7q-.2-.2-.4-1c-.3-1.6 1.8-4.7 1.2-6.9-1.8-6-11-7.2-12-.4-.4 2.4 1.7 4.7-1 7.5q-.3.3-.3.8l-.7 23.6a1 1 0 0 0 .8.9l12.5.8.5-.5.7-23q0-.5-.3-.8zm42.5-6a3.6 1.2 82 0 0 .7-3.6 3.6 1.2 82 0 0-1.7-3.4 3.6 1.2 82 0 0-.7 3.7 3.6 1.2 82 0 0 1.7 3.4m-32 6-1 1q-.4.2-.4.8l-.7 22.9.5.5h12.5a1 1 0 0 0 1-.9l.6-23.5q0-.5-.2-.8c-2.6-3-.3-5.1-.5-7.6-.7-6.8-10-6.2-12-.3-.8 2.2 1 5.4.7 7q-.2.7-.5 1m-66.6-8.1a1 1 0 0 0-.8-.8h-1.2a1 1 0 0 0-.8.7l-1 31.4a1 1 0 0 0 .7.8h1.3a1 1 0 0 0 .8-.7zm121.9 1.4H261l-.6.4-1 31a1.2 1.7 2 0 0 1.1 1.7h.3a1.2 1.7 2 0 0 1.3-1.7l1-30.9-.4-.5m-102.1 3.7a1 1 0 0 0-1-1h-1.2a1 1 0 0 0-.9 1l-.8 31.9a1 1 0 0 0 .9 1h1.2a1 1 0 0 0 1-1zm79.4-.7h-1.5l-.3.2-.6 24.3a.7 1.2 1.4 0 0 .7 1.2h.6a.7 1.2 1.4 0 0 .7-1.2l.6-24.2zm-122 18.2a.2.2 0 0 0 .4-.2l.3-11q0-.6-.4-.9-3.3-2.1-4.8-6l-.2-.1-.3-.1q-.2 0-.2.2l-.2 14.2q0 .2.2.3zm165.3-5c-.8-3.2-.3-7.6 0-11.4q.1-.7-.3-.1l-3 3.8-.2.8-.4 13q0 .8.5.3l3.7-3.4q.4-.4.3-1zM245.5 175a1 1 0 0 0-.7-.7h-1.6a1 1 0 0 0-.7.6l-.9 31.5a1 1 0 0 0 .7.7h1.6a1 1 0 0 0 .7-.6zm-63.4 1.3a1 1 0 0 0-.9-1h-1.5a1 1 0 0 0-.9.9l-.9 32.5a1 1 0 0 0 .9.9h1.5a1 1 0 0 0 .9-.8zm43.2 1a1 1 0 0 0-.6-.8H223a1 1 0 0 0-.8.7l-1.1 32.3a1 1 0 0 0 .6.7l1.6.1a1 1 0 0 0 .7-.7zm-21.6.6a1 1 0 0 0-1-1h-1.1a1 1 0 0 0-1 1l-1 32.1a1 1 0 0 0 1 1l1 .1a1 1 0 0 0 1-1zm-102.4 16.6c5.2 5 3.7 12.7 3 19.2a.4.4 0 0 0 .4.4h.3a.5.5 0 0 0 .5-.6q-.5-4.3 2.3-7.4 3.2-3.5 6.6-.1c4 4 4 10 3 15.3a1.3 1.2 7.7 0 0 1.1 1.4l1.5.1q1.2.1 1.2-1.1c0-3.5 0-7.9 4.1-8.7 4.2-1 7.7 2.4 8.9 6.3q1 3.3.3 8.9a1 1 0 0 0 1 1.1l2.3.3q.9 0 .8-.8c-.3-4.5 0-8.7 5-9.9 4.5-1 8.7 2.4 10.5 6.5q1.5 3.6-.4 7.7a1 1 0 0 0 .4 1q2.2.8 4.2 1a.5.5 0 0 0 .5-.6c-1-4 .1-8.9 4.3-10.5 7.5-2.8 14 3.2 13.2 10.8 0 .8-.5 1.8-.7 2.6q-.2.8.6.8l4.2.1q.7 0 .7-.7l-.3-3.2c-.7-9 12.5-11.7 16.8-4q2 3.7 0 8.1-.4.7.3.7l5.3.1q.7 0 .5-.7-2.1-8.3 4.4-11.4c4.7-2.3 11.2.3 12.3 5.6q.6 2.4-.3 5.5a.6.6 0 0 0 .5.8q2.5.2 4.8-.3l.4-.6q-2.4-8.5 4.3-12.5c7.3-4.4 13.8 2.7 11.7 10q-.1.5.5.6 1.5.1 3.6-.5a1 1 0 0 0 .6-1.4q-2.5-6.2 1.4-10.8c2.5-3 6.6-4.2 9.8-1.6q3.1 2.6 2.8 8.7-.1 1.3 1.2 1.2l1.3-.2q1.2-.1 1.1-1.3c-.2-5.2-.8-8.5 1.7-12.5q2.3-3.6 6.4-2.9 3.5.6 5 9.2 0 1 .9.5l.3-.2a1 1.1 74.2 0 0 .5-1q0-6.6.3-9.5c.5-4 4.3-10.1 9-5.2q.8.9.8-.3c0-4.5-.5-10.1 5-11.1q.6-.1.6-.6l.2-6q0-1-.6-.3a68 68 0 0 1-33.4 21 207 207 0 0 1-107.4 2.7q-8.3-2-18.9-5.8-15.8-5.8-27.4-14.3-5-3.8-11.2-11.8-.3-.5-.3 0l-1 15.3q0 .1.1 0c1.1-2.3 3.7-6 6.6-3.1m33.8-4.8-8.7-5a.3.3 0 0 0-.4.2l-.6 9.6q0 .6.4.8l8.8 3.2.1-.1.5-8.4zm131-.1q-1 .7-1.1 2l-.6 8.1q0 1.2 1 .7l5.6-2.6a1 1 79.9 0 0 .8-1l.7-10.7q0-.9-.7-.4zM154.4 197l-11.9-4.2-.2.1-.2 8.5.3.4 11.6 3a.2.2 0 0 0 .3-.2l.2-7.4zm103-2.5h-.1l-9.6 3.3q-.5.1-.5.6l-.5 7.3q0 .4.4.3l9.4-2.2.3-.3zm-159.8 8.6 3.5-.1a1 1 0 0 0 .9-1v-.2a6 2.6 87.7 0 0-2.9-5.8 6 2.6 87.7 0 0-2.5 6v.2a1 1 0 0 0 1 .9m64.6-3.8-.3 7.2q0 .3.3.3l12.7 2.4a.5.5 0 0 0 .6-.5l.2-6.7q0-.4-.4-.5-6-.3-12.8-2.5-.3-.1-.3.3m76.9 1-11.4 2q-.8 0-.8.8l-.6 6.1q0 .7.7.6l11.2-1.4q.7 0 .7-.7l.6-7q0-.5-.4-.4m55.5 5.6-.6-5.2q0-.5-.5-.6t-.8.4q-1.8 2.4-1 5.8.1.7.9.6l1.3-.1a1 1 83.3 0 0 .7-1m-97-1.5-.6-.6-12.8-.9-.6.5-.4 6 .5.6 12.8 1 .6-.6zm7.5 5.8a1 1 0 0 0 .7.7H218a1 1 0 0 0 .7-.7l.2-5.8a1 1 0 0 0-.7-.7H206a1 1 0 0 0-.8.7zM103 215.9a1 1 0 0 1-.8-1v-9.6q0-.6-.5-.3l-.3.1a1 1 77.5 0 0-.7 1.1l-.6 19.1q0 1.2 1 .7l1.9-1a1 1 80.6 0 0 .7-1q.5-3 .3-6.7l-.1-.8q-.4-.5-.9-.6m-5-10.4h-1.2a.4.4 0 0 0-.4.4l-.8 27.4a.6 8.6 1.7 0 0 .4 8.6h.8a.6 8.6 1.7 0 0 .8-8.5l.9-27.4a.4.4 0 0 0-.4-.5m16.8 6.8q-.8-3.4-2.4-5a1.4 1.4 0 0 0-2-.2q-2.6 2.2-2.2 6.4 0 .6.6.6 3.2.1 5.6-1a1 1 0 0 0 .4-.8m167.9 3.7 4.1.4a1 1 0 0 0 .8-.7v-.5a2.6 5.6 5.3 0 0-2-5.9h-.4a2.6 5.6 5.3 0 0-3.1 5.3v.6a1 1 0 0 0 .5.8m9.8-5a1 1 0 0 0-.8-1 1 1 0 0 0-1 .9l-1.7 29.7a1 1 0 0 0 .8.9 1 1 0 0 0 1-.8zm-163 6-2.8-2a1 1 0 0 0-1.3.3l-.1.2a2.5 6.4 33.5 0 0-1.5 6.7l.1.1a2.5 6.4 33.5 0 0 5.6-4l.2-.1a1 1 0 0 0-.3-1.3m-15 5.7 1.1-6.1q.3-1.6-1.2-1l-2.2.9q-1.5.5-1.5 2l-.5 17q0 .7.3 1.3l5.2 7q.4.7.4-.1l.9-18a1 1 10.9 0 0-.8-1q-.6-.3-1.4-1-.4-.4-.3-1m-6-5a1 1 0 0 0-1-1h-.2a1 1 0 0 0-1 .9l-1.5 36.4a1 1 0 0 0 1 1h.2a1 1 0 0 0 1-1zm160 4.4c1.4 1.2 2.8 2.9 5 3l.6-.6q.3-2.7-.5-5c-1.1-3.3-4.1-2.4-5.5 0q-1 1.4.3 2.6m13.8-2.9-.4-.5h-.1l-.5.4-.3 4.4.4.5h.1l.5-.4zm3.2-.3-.6.6-1 35.6a.6.6 0 0 0 1 .4l1.3-1.5.1-.4 1-34a.6.6 0 0 0-.6-.7zm-154.4 10q1.9-4.6.8-9.1-.4-1.6-1-.2-2 3.9-6.3 5.8a1 1 0 0 0-.5.8l-.7 24.9q0 .2.2.3l9.2 6.4a.1.1 17.4 0 0 .2 0l.8-25.7-.3-.6-2-1.6a1 1 29.1 0 1-.4-1m12.3-7.3-1 .3q-1 .5-1.3 1.7-.6 3.3-.2 4.4a.7.7 55 0 0 1.2.3q2-2.7 2.3-6 .1-1.1-1-.7m7.4 12.7.8-2.6a7 7 0 0 0-3.5-9.6q-1.4-.7-1.5.9 0 5-5 9-.4.3-.5.9l-.8 28 .5.7 11.2 3.8q.6.2.7-.4l.8-27.7q0-.6-.6-.9l-1.3-.5a1.3 1.3 0 0 1-.8-1.6m103-10.6q0 4.3 1.4 6 2.6 3.3 3-.7.2-1.1-1.5-4.2-.8-1.6-2.5-1.6-.5 0-.5.5m12 9.3-1.3 1.3q-.3.3-.3.7l-.6 20.2q-.1 2.1 1.5.7l4.3-4q1.7-1.6 1.8-4l.5-19.6q0-1-.7-1.5l-4-3.1q-.6-.4-.6.3v7.7a1.7 1.8 68.8 0 1-.5 1.3m-17.8-2.6c0 3 3 6.6-1.3 8q-.4.2-.4.7l-.8 25.5q0 .7.7.5l8.9-3.4a1.5 1.3 82.1 0 0 .8-1.3l.8-25.8a1 1 16.5 0 0-.7-1.2c-4-2.3-4.2-5-4.5-9.2a.4.4 0 0 0-.6-.2q-3 2.6-2.9 6.4m33.3-4.5-2.2 2.5v.2l-.3 9.9q0 1 .7.3c2.5-2.7 3-9.5 2.6-12.7q-.1-1-.8-.2m-159.4.8a1 1 0 0 0-1.1-1.2h-.5a1 1 0 0 0-1.2 1l-1.3 36.4a1 1 0 0 0 1.1 1.2h.5a1 1 0 0 0 1.2-1.1zm51 11.6c0-1 1-2.9 1-4q.7-5.6-4.5-8-3-1.3-3.2 1.9-.5 5-4.8 9.1-.4.3-.4.8l-.8 28.8a1 1 6.2 0 0 .8 1l12.5 2.3a.4.4 0 0 0 .5-.4l.9-28.6q0-.5-.4-.8l-1.5-1.2q-.2-.1-.1-.9M162 234l2.2-7.3v-.1a1.9 3.8 17.4 0 0-3 3l-.1.3a1.9 3.8 17.4 0 0 .7 4.2.1.1 0 0 0 .2 0m65.5 6.8-1.1.7q-.4.3-.4.8l-.9 27.9a.3.3 85.8 0 0 .4.3l11.7-2.2.6-.6 1-27.2c0-1 0-1.6-.8-2.4-2.9-3.1-2.7-5.7-3-10.2a1 1 0 0 0-1.2-.9c-4.7.8-6.8 4.3-6.2 8.8l.6 3.7a1 1 70.6 0 1-.7 1.3M237 228l1.8 7 .1.1a3.5 1.7 76.1 0 0 .9-3.7l-.2-.6a3.5 1.7 76.1 0 0-2.4-3 .1.1 0 0 0-.2.2m39.9.1q0-.8-.8-.8h-.8q-1 0-1 1l-1.4 36.8q0 1 .8.5l.9-.4q1-.6 1-1.6zm-80.3 13.8c-2.1-1.3-1.6-2.9-.8-5.2 1.1-3.7 0-7-3.9-8.1q-4.3-1.3-6.9 1.8c-2.6 3.4.7 7.3-2 10.7q-.3.4-.3.9l-.9 28.8a1 1 1.4 0 0 .8.8l12.8.4a1 1 0 0 0 .7-.7l.9-28.7q0-.4-.4-.7m-97-.4q-.1 1.3-1.4 2.4-.3.4-.1.8 1.5 4.1 4.3 7.2.4.4.4-.2l.8-23a.4.4 0 0 0-.5-.4l-2.3.4q-.5 0-.5.6zm106 .4-.5.3q-.4.2-.4.6l-.8 29.2a1 1 87.7 0 0 .7.7l12.6-1.5.4-.5.9-28.2q0-.5-.3-.9-2.4-2.9-2-6.7.2-3-.3-3.9-1.5-2.6-4.5-2.2c-4.7.5-6.3 3.8-5.5 8l.5 3.8a1.4 1.4 73.7 0 1-.7 1.3m86.3 1.6h-2q-.6 0-.6.6c-.2 5.7.3 9.9-3.2 14a56 56 0 0 1-21.5 14.7q-5.9 2.6-11.2 4.1c-34.7 9.8-71.8 9-106.7 0a136 136 0 0 1-30.4-11.8 45 45 0 0 1-22-21.9c-1.4-3.3-1-6-1-11q0-1.4-.6-.1c-9.1 17 12.2 33 24.9 39.3a186 186 0 0 0 75.2 17.7q28.9 1.3 56.6-5.7 15-3.8 27.1-10.9c12.6-7.3 23.9-20 17.5-35.5q-.5-1.4-.7 0l-.5 5.7q-.1.8-1 .8m-153-10.3a1 1 0 0 0-.8-.9h-1.3a1 1 0 0 0-.8.8l-1.2 37.3a1 1 0 0 0 .8.8h1.3a1 1 0 0 0 .9-.7zm122.6 1.3h-1.7l-.6.4-1.2 35.4a1 2.5 1.9 0 0 1 2.5h.8a1 2.5 1.9 0 0 1-2.4L262 235zm-102.6 3.9a1 1 0 0 0-1-1h-1a1 1 0 0 0-1 1l-1.2 37.5a1 1 0 0 0 1 1h1a1 1 0 0 0 1-.9zm83.5 39 .5-.6 1.1-37.2a.6.6 0 0 0-.7-.6l-1.7.3-.5.6-1.2 37.1a.6.6 0 0 0 .8.7zm-131.5-36.7q0-.3-.5 0l-.2.3-1 16.8q0 .3.3.5l6.2 3.5.4-13q0-.5-.3-.9c-1.6-2-4-5-4.9-7.2m69.5 1.2a1 1 0 0 0-.8-.9H178a1 1 0 0 0-.8.8l-1.1 37.7a1 1 0 0 0 .7.8h1.6a1 1 0 0 0 .8-.7zm101.3 16.5.3-16.8q0-.9-.6-.3-2.8 3-3 7.5l-.4 13q-.2 1.6 1 .5l1.6-1.4q1.1-1 1.1-2.5m-57.8-15.5a1 1 0 0 0-1.1-1.1h-.8a1 1 0 0 0-1.2 1l-1.1 36.9a1.2 1.2 0 0 0 1.1 1.2h.8a1.2 1.2 0 0 0 1.2-1.1zm-21.5 0a1 1 0 0 0-.7-.8H200a1 1 0 0 0-.8.7l-1 38.2a1 1 0 0 0 .8.7h1.7a1 1 0 0 0 .7-.6zm-79 11.4a.1.1 0 0 0-.2.1l-.2 11 .4.7 8.8 3.5a.2.2 0 0 0 .4-.2l.2-9-.2-.2zm141.2 5q-1.1.7-1.1 2l-.3 8.6q0 1.2 1 .6l5.8-2.9a1 1 78 0 0 .7-1.1l.4-11.2q0-.8-.7-.3zm-167.1 6.4c5.9 4.5 5.2 12.7 4.4 19.5q-.1.8.7.8h.4a.5.5 88.9 0 0 .5-.6q-.1-3.6 1.6-6.3c2.5-3.8 6.8-2.1 8.5 1.4 2 4.5 1.8 8 1.4 12.9a2 2 0 0 0 1.2 1.7l.8.2q1.2.3 1-.9c-.3-5 2.6-11.3 8.8-8.3 5.3 2.5 6.3 8.4 5.2 14q-.3 1.4 1 1.7l2.2.6q1.4.4 1.2-1-.5-2.6 0-4.7c1-4 5.4-5.8 9.1-4.5 5.4 2 9 6.8 6.8 12.6q-.6 1.7 1.2 2l1.5.4q2 .7 1.7-1.4c-.6-5.4 3.1-10.7 8.9-9.8 6.5 1 10.4 7 7.8 13.3q-.4 1.1.7 1.1l4.3.2q1 0 .9-1-1-8.5 5.6-10.5c7.7-2.3 14.4 4.1 11.4 11.8a.6.6 0 0 0 .5.8l4.6.1q1.2 0 .9-1.1c-3.4-14.6 17.8-15.9 17-1.6q0 .3-.3.7l-.4.6a.7.7 0 0 0 .6 1h4a1 1 0 0 0 .8-1q-2.2-7.7 4.2-11.8 4-2.7 7.8-.5 5.4 3.2 3.4 10.4-.1.5.4.6h2.5q1.7-.2 1.4-1.7-1.5-7.6 3.5-12c6.7-5.7 12.5.7 12 7.6a1 1 0 0 0 .8.8q1 0 1.8-.3t.8-1.2q0-.7-.3-2-1-5.7 2.7-10.8 1.8-2.5 4.4-2.4c4.8.2 5.4 4.4 6.2 8.7a.5.5 0 0 0 .7.4l.5-.4a1 1 70.1 0 0 .4-.9c-.4-5.3-.8-12.6 4-15.7q3.2-2 5.3 2.1.5 1 .5 0c.2-4.9 0-11 5.5-12.2q.5 0 .5-.6v-6q0-.8-.5-.2-7 7.7-14.3 11.9-13.3 7.8-29.8 11.7-43 10.2-89 1.6-18.9-3.5-36-10.8-5.6-2.3-14.8-7.8-8.8-5.3-14.8-13-.8-1-.8.2l-.7 13.2q0 .8.3.1l1.8-3.1a2 2 0 0 1 3-.6m54.8 2.3-11.8-4-.3.1v8.4l.3.4 11.6 3a.2.2 0 0 0 .3-.3zm103.7-3.8-.1-.1-9.9 3.8q-.5.2-.5.7l-.2 7.7q0 .4.3.3l9.8-2.6.3-.4zM94 275l5.2-.4.3-.3v-.3a6.4 2.8 85.5 0 0-3.5-6h-.2a6.4 2.8 85.5 0 0-2.3 6.6v.3a.3.3 0 0 0 .4.2m65.9 2q0 .7.7.8l12.5 2q.5.2.6-.4l.4-6.1-.5-.7-12.8-2.5-.5.4zm77.5-6.5-11.8 2.4q-.3 0-.3.3l-.1 6.8q0 .4.3.3l11.9-1.7.5-.6v-7q0-.6-.5-.5m55.6 7.4-.5-5.1q0-.5-.5-.5-.4-.1-.8.3-1.8 2.3-1.1 5.7.1.7.9.6l1.3-.1a1 1 83.7 0 0 .7-1m-96.9-2.4a1 1 0 0 0-.7-.9l-12.9-.6a1 1 0 0 0-.8.7l-.3 5.4a1 1 0 0 0 .8.8l12.8.7a1 1 0 0 0 .8-.8zm21.2-1.2-.3-.3-13.2.7-.3.2.4 6.6.2.2 13.2-.6.3-.3zm-121.7 3.9a1 1 0 0 0-1-1.1 1 1 0 0 0-1.1 1L92 312.3a1 1 0 0 0 1 1.1 1 1 0 0 0 1.1-1zm3.6 8.6.9-9q0-.8-.7-.8h-.5q-1 0-1 1l-.7 18.8q0 .5.5.4l2.6-.2q.5-.1.6-.7l.2-7.2a1 1 15.9 0 0-.5-1l-1-.5q-.5-.3-.4-.8m12.5-1.5q.6-.3.5-1-.7-3.1-2.2-4.6a1.7 1.7 0 0 0-2.5.2q-2 2.5-1.8 6l.5.5q2 .2 5.5-1.1m169.7 2.8 3.1.2a1.3 1.3 0 0 0 1.4-1.2V286a2.8 4.4 3.6 0 0-2.4-4.6h-.2a2.8 4.4 3.6 0 0-3 4.2l-.1 1.2a1.3 1.3 0 0 0 1.2 1.3m9.6-5.7a1 1 0 0 0-.9-1 1 1 0 0 0-1 .9l-1.7 31.2a1 1 0 0 0 .9 1 1 1 0 0 0 1-1zm-177.5 14.4a1.7 1.8 8.9 0 1-1.3-2l.9-7.1a.2.2 0 0 0-.3-.2l-4.3 1.7q-.3 0-.3.4-.7 12.4-.7 14.5c0 3.4 3.2 8.3 4.9 10.7q1 1.6 1-.3l.7-16.1q0-1.4-.6-1.6m6.8-2.7a.7.7 0 0 0 1 .6q2.9-1.7 4-5.3a1 1 17.7 0 0-.6-1.4c-3.4-1-4.5 4-4.4 6.1m-17-4.5-1.1 36.3q0 1.1.9 1.7l.9.6q.8.5.8-.5l1-37.8q0-1-.8-1h-.9q-.8-.1-.8.7m164.5 1c-1.8 2.7 1 5.1 3.6 6a.8.8 0 0 0 1.2-.8q.3-3.2-1.6-5.8l-.8-.5q-1.5-.3-2.4 1M129.1 301q2-6.4-1.1-11-.4-.6-.6 0-1.7 5-5.8 7.9-.5.3-.5.9l-.7 23.2q0 1 1 1.7l8.6 5.6q.8.6.9-.4l.7-24.6a1 1 0 0 0-.9-1q-1.2 0-1.7-.8-.2-.4.1-1.5m150.4-9.8c0 2.4.7 5-1.4 7.4q-.4.3-.4.8l-.2 8.1q0 1.4.8.3c3.2-4 2.8-11.2 3-16.1q.1-.8-.6-1h-.4q-.8-.3-.8.5m6.4.6a1.2 1.2 0 0 0-1.2-1.2 1.2 1.2 0 0 0-1.2 1.2l-1.3 35.2a1.2 1.2 0 0 0 1.1 1.2 1.2 1.2 0 0 0 1.3-1.2zm-146.6 9.7 3.8-7.3v-.1a2.7 4 26.9 0 0-4.3 2.4l-.1.2a2.7 4 26.9 0 0 .6 4.8m125 3.5-1.8 1.2q-.3.3-.4.7l-.6 20.6q0 1.3 1 .5l5.8-5.5q1.3-1.1 1.3-3l.6-19.3q0-.3-.2-.4-2.8-2.7-4.8-6.3a.2.2 0 0 0-.4 0q-1 5 .1 9.6a2 2 0 0 1-.7 1.9m-114.5 3a1.4 1.4 27.6 0 1-.5-1.4c1.7-5 2-8.6-3-11.6a1 1 0 0 0-1.2.4q-1.7 5-6 9.6-.3.4-.3.9l-.8 26.7a1 1 12.3 0 0 .8 1l11 4.5a.6.6 0 0 0 .8-.5l.9-27.9q0-.3-.3-.6zm102.8-12.3c-.7 2.3-.7 8 3.2 7.7a1.2 1.2 0 0 0 1.2-1.4q-.5-4.2-3.2-6.7a1 1 29.1 0 0-1.2.4m-6.3 14-1.4.8q-.5.3-.5.8l-.8 25.9q0 .7.6.4l9.4-4.2.5-.7.7-25.2a2 2 15 0 0-.8-1.5c-3.5-1.8-4.1-5.3-4-9q0-.8-.6-.3c-4.3 2.7-4.5 7.4-2.8 11.8a1 1 0 0 1-.3 1.2m-129.8 26.8a1 1 0 0 0 1.3-.7l1-37-.4-.7-1-.6a1 1 0 0 0-1.2.7l-1.1 37a1 1 0 0 0 .4.8zm54.2-26.6c.3-1.3 1-3.4 1-4.8q-.4-5.8-6.7-6.6a1.5 1.5 0 0 0-1.6 1.3c-.4 4.2-.8 7-4 9.8a1 1.1 69.9 0 0-.5.8l-.9 29.4a1 1 5.8 0 0 .7.9l12.9 2.3a.4.4 6.2 0 0 .4-.4l1-29.4q0-.5-.5-.6-1-.3-1.7-1-.4-.4 0-1.7m102-10.4-.2.3-1.2 39.5a.3.3 0 0 0 .5.2l2-1.8.1-.2 1.2-38.2a.3.3 0 0 0-.5-.3zM96.5 313.8c0 1.1-.7 1.7-1.5 2.6q-.4.4-.2.9 1.8 4.4 4.8 7.6.4.5.4-.1l.8-24.8a.5.5 85.1 0 0-.6-.5l-2.5.5q-.6 0-.6.6zm62.9-7.8a12 12 0 0 0 1.6-6 .3.3 0 0 0-.4-.2q-2.7 2.5-2 6a.4.4 0 0 0 .8.2m66.4 7.5-1.1.6q-.5.3-.5.8l-.7 27.7a.3.3 0 0 0 .4.3l11.6-2.1a1 1 0 0 0 .6-.7l.8-27q.2-1.4-.7-2.4c-3-3-2.8-5.7-3.1-10.1a1 1 0 0 0-1.1-.9c-4.7.8-6.8 4.3-6.1 8.7l.5 3.8a1 1 0 0 1-.6 1.3m11.5-5.6a3.5.8 78.7 0 0 .1-3.6 3.5.8 78.7 0 0-1.4-3.4 3.5.8 78.7 0 0-.2 3.7 3.5.8 78.7 0 0 1.5 3.3m-43.8 4.2c0-1.7 1.4-4.4.8-6.3-1.4-4.9-7.2-6.5-10.6-2.8-2.5 2.7-.1 7.3-2.8 10.3q-.4.3-.4.8l-.9 29.3q0 .9 1 1l13.4.3a.4.4 1.4 0 0 .5-.4l.8-29q0-.4-.3-.8l-1.4-1.4zm10.8 1.7-.8.5a1 1 0 0 0-.4.8l-1 29.2a1 1 87.5 0 0 1.2 1l12-1.4a.8.7 87.8 0 0 .6-.7l.8-28.2q0-.5-.3-1c-2.2-2.8-2-4.4-2.2-7.5q-.2-2.7-.9-3.7c-2.1-3.2-7.1-.8-8.6 2-1.1 2-.2 4.6.3 7.6a1.4 1.4 0 0 1-.7 1.4m86.5 2.2-2.9.5-.5.7c.1 4.4.6 9.2-2 12.6a57 57 0 0 1-28.6 18.8q-17.3 5.8-35.6 7.6-38 3.7-75.6-6Q125.4 345 109 335q-7.8-4.7-13-11c-2-2.2-3-4.5-4.4-7.4-2-4.3-1.7-8.4-1.5-12.6q0-1.1-.7-.3-.5.5-1 2.7-2.5 9.2 2.3 17.1c6 9.6 17 16.5 27.2 21.4 31.7 15 68.5 19.3 103.1 16q18.8-1.9 35.7-7.4c17.8-6 44.2-20.8 36-43.9q-.4-1-1-.7l-.2.4-.1 6a1 1 86 0 1-.6.7m-154.1-10.2a1 1 0 0 0-1-1h-.9a1 1 0 0 0-1 .9l-1.2 37.8a1 1 0 0 0 .8 1h1a1 1 0 0 0 1-1zm80.1 3.6a1.9.3 85.2 0 0 .1-2 1.9.3 85.2 0 0-.4-1.8 1.9.3 85.2 0 0-.1 1.9 1.9.3 85.2 0 0 .4 1.9m41.4 36.4a1 1 0 0 0 .5-.8l1.1-37.5a1 1 0 0 0-1.4-.8l-.9.6-.5.7-1 37.5a1 1 0 0 0 1.4.8zm-101.6-35a1 1 0 0 0-.9-1h-1.1a1 1 0 0 0-1 .9l-1.2 38.2a1 1 0 0 0 1 1h1.1a1 1 0 0 0 1-.9zm123.8 20v-18.9q0-1-.6-.2-3.2 3.4-3.2 8.4-.1 10-.4 14.4-.1 2 1.3.6l1.6-1.5q1.3-1.2 1.3-2.9M107.8 312q-.4-.6-.4.1l-.8 17.8q0 .3.2.5l5.8 4.4a.3.3 0 0 0 .4-.2l.4-14.1a1.2 1.3 26.3 0 0-.2-.7zm134.4.5a1 1 0 0 0-.8-.8H240a1 1 0 0 0-.8.8l-1.1 37.8a1 1 0 0 0 .8.8h1.4a1 1 0 0 0 .8-.7zm-64 1.6a1 1 0 0 0-.7-.7h-1.7a1 1 0 0 0-.8.6l-1 38.7a1 1 0 0 0 .7.8h1.8a1 1 0 0 0 .7-.7zm22.6 1a1 1 0 0 0-.6-.7h-2l-.6.6-1.2 39.3a1 1 0 0 0 .6.7h2l.6-.6zm21.3-.3-.6-.6h-2l-.5.5-1.2 38.8.6.6h2l.5-.5zM120.6 326l-.2.1-.4 12 .5.7 9.5 3.9a.3.3 0 0 0 .4-.3l.3-9.7q0-.2-.2-.2zm148.4-.3-7.3 6q-.3.3-.3.7l-.3 11.3q0 1 .9.6l5.8-2.5a2 2 79.1 0 0 1-1.6l.5-14.4zM94.6 337.1c3.8 1.6 5.1 9 5.1 12.7q0 1.9-.9 7.3 0 .5.5.5h.4a1 1 0 0 0 .9-.7c.6-2.6 2-8.4 6.1-7.5 7 1.6 6.4 11.3 5.5 16.6q-.3 1.3 1.1 1.4h1.4q1.1 0 1-1.1c-.7-8.1 7.6-11.7 12.2-4.5q3.3 5.1 1.7 11.4l.3.8q1.6.9 3.4 1 .6 0 .5-.5-.3-3.6.1-5c1.9-5 6.9-6.6 11.4-3.8 4.9 2.9 5.5 7.8 4.8 13.2q-.1 1 .8 1.1l2.8.5q1 .2.8-.8c-1.8-10 9.6-14.7 15.8-6.7q3.6 4.6 1.2 10-.3.8.5.8l5.2.2q.4 0 .3-.5-1.5-7.4 3.5-10.4 4.3-2.5 9-.5 6.7 2.8 4.4 12 0 .4.3.4l5.6.2a.2.3 83.9 0 0 .3-.3q-2-8.2 3.8-11.4c4.4-2.5 9.4-1.6 12 3.2q2.2 4.1.4 7.7-.4.7.5.6l4.7-.5a.4.4 78.9 0 0 .4-.6q-2.4-9 5.2-12.7c4.4-2.2 7.7-.3 10 3.5.9 1.6.5 4.6.3 6.7a1 1 0 0 0 .7.8q1.7.1 3.2-.5a1 1 0 0 0 .7-1.4q-1.8-7 2.9-11.6c5.8-5.7 12.7-.4 11.6 6.4q-.2 1.1.9 1.3 3 .3 2.6-1.6-1.5-6.6 2.2-11.4c2.7-3.5 6.8-3.9 9.2.3q.8 1.3.7 5.1a.4.4 0 0 0 .4.5h.4l.5-.5 1.7-10.5c.7-3.8 3.9-10 8.7-6.1q.7.5.7-.3.4-3.3 1-6.1 1-4.3 5-4.5.5 0 .5-.5l-.1-5.7q0-1.1-.7-.3-7.6 9-18.3 14.5-14.4 7.3-31.2 10.6-51 10-101.4-4.1-5.1-1.5-11.8-4.1c-13.2-5.2-29.3-12.7-38-24.8q-.3-.5-.3.1l-1 17.3.3.1c.5-2.3 1.6-9 5.6-7.3m149.2 3.6-.3.3-.2 9h.1l9.6-2.5q.6-.1.6-.8l.3-10.2a.3.3 0 0 0-.4-.3zm-93.6.1-12.1-4.5a.2.2 0 0 0-.3.2l-.2 8.7a.4.4 7.7 0 0 .3.5l12 3.2.2-.2.3-7.7zm-58-.8-.8 5q-.2.9.7.9l3.9.1q.8 0 .7-.7-.4-2.7-2.1-5.7a1.3 1.3 0 0 0-2.3.4m65.4 10q0 .7.7.8l12.6 2q.6.2.7-.4l.3-6.2-.5-.7-12.9-2.5-.5.4zm78-6.9-11.7 2.2-.5.5-.2 8q0 .3.4.3l11.7-2.2q.5-.1.5-.6l.2-7.8a.4.4 0 0 0-.4-.4m53 7.5h1.9a1 1 0 0 0 .7-.6v-1.6a1.4 4.1 1.4 0 0-1.2-4.1h-.5a1.4 4.1 1.4 0 0-1.4 4v1.6a1 1 0 0 0 .6.7m-94-2.8-.5-.5-14-1-.5.5-.4 6.7.4.5 14 1 .4-.5zm7.4 7a1 1 0 0 0 .7.7l12.2-1.4.6-.6.2-6.6a1 1 0 0 0-.7-.6l-12.2 1.4-.6.6zm-105.7 3.4 1-9.2q0-.8-.8-.8h-.4q-1.1 0-1.2 1l-.5 19.3q0 .6.5.5l2.6-.3q.6 0 .6-.7l.2-7.4a1 1 15.7 0 0-.5-1l-1-.5q-.5-.3-.5-.9m-3.4-8.9a1 1 0 0 0-1-1 1 1 0 0 0-1.1 1l-1.3 34a1 1 0 0 0 1 1.1 1 1 0 0 0 1-1zm10.2 9 6.6-.7.2-.3v-.3a5.6 3.5 83.8 0 0-4.1-5.1h-.1a5.6 3.5 83.8 0 0-2.9 5.9v.2zm176 1.1 3.8.5a1 1 0 0 0 1-.8h.1a2.9 5.5 7.5 0 0-2.1-6h-.1a2.9 5.5 7.5 0 0-3.6 5.1v.2a1 1 0 0 0 .8 1m10-5.3a1 1 0 0 0-1-1 1 1 0 0 0-1 .9l-1 30.5a1 1 0 0 0 .8 1 1 1 0 0 0 1-1zm-179.6 12.7c0-2.2 1-4.4 1.1-6.4q.1-1-.8-.8l-3.6 1a2 2 83.6 0 0-1.2 1.5l-.4 13a3 3 30.7 0 0 .5 1.9l5.2 8.6q1 1.8 1.1-.3l.4-15q0-.6-.4-.9-1.6-.9-1.9-2.6m12.5-6.4c-3.5-.3-4.4 3.5-3.9 6.4a1 1 0 0 0 1.2.7q3.3-1.3 4.8-4.3l.1-1q-.4-1.6-2.2-1.8m-20.6 40 1.4-40a2.2 2.8 2 0 0-2.4 2.8l-1.2 34.4a2.2 2.8 2 0 0 2.1 3h.1zM276 376.7c1-1.8 2.8-3.3 3-5.2.2-3.2 0-5.2.9-8.1q.1-.5-.2-.9-.6-.6-1.5-.9-.6-.2-.5.4.7 4-.9 8c-1 2.8-1 5-.8 7.5zm8-14h-1a1 1 .9 0 0-.8.9l-.6 3.4-.7 31.6q0 2.7 1.5.5.7-1 .9-3.4.5-10.3.8-30 0-.8.5-2.5.2-.7-.6-.6m-15 6.5a.5.5 0 0 0 1-.2q.4-2.1-.2-4.4a2 2 0 0 0-2.3-1.3q-1.5.4-2 1.5-.2.4 0 .7zm-142 6.1a1 1 0 0 1-.5-1.1c1.2-3.4 2.2-7.2.3-10q-.4-.5-.8.1-1.9 4-6.4 5.6-.5.2-.6.8l-.6 21.8a2 2 0 0 0 .6 1.4l9 6.8a.4.3 19.7 0 0 .5-.3l.7-23q0-.5-.3-.8-.7-.9-1.8-1.3m9.1-1.6a.4.4 0 0 0 .6.3q2.5-1.9 4.5-6.1.4-.9-.6-1c-3.5-.6-4.8 4-4.5 6.8m126.5-2.3c1.3 4.2 1 4.7-1.6 7.7q-.4.4-.4 1l-.5 17.6q0 .8.5.2c2-1.8 7.7-7.6 7.8-11q.3-7 0-14.7 0-.4-.2-.7L264 367q-.6-.6-.9.2-1 2.8-.6 4m-115.3 9q0-.8.4-2.6 1.5-6.9-3.6-10.1a1 1 0 0 0-1.2.5q-1.2 5.7-5.8 9l-.5.8-.8 26a2 2 0 0 0 1 1.4l11.9 4.8.2-.2.8-26.7q0-.5-.4-.8l-1.6-1.3q-.4-.3-.4-.9m106.5-4.4a3.9 1.9 70.5 0 0 .4-4.3 3.9 1.9 70.5 0 0-3-3 3.9 1.9 70.5 0 0-.5 4.2 3.9 1.9 70.5 0 0 3 3m-8.4 6.4-2.1 2q-.4.4-.4 1l-.7 23.3a.2.2 77.4 0 0 .3.2l9.7-5a1 1 0 0 0 .6-.8l.7-23.3q0-.5-.4-.8-5-3-4.6-8.8 0-1.5-1-.5a9 9 0 0 0-2.4 9.8l.6 2a1.4.8 78.4 0 1-.3 1M116.5 371a.5.5 0 0 0-.5-.6h-1.6l-.5.5-1.1 37.4.2.4 1.5 1.2a.5.5 0 0 0 .9-.4zm-23.7 15.6-1.2.5q-.7.3-.3 1l5.2 8.6q.6 1.1.7-.2l.7-24.8q0-.6-.6-.5l-2.3.5q-.6 0-.6.7L94 385a2 2 0 0 1-1.2 1.6m76.4-3.7q3-8.6-5.5-11.3a1 1 0 0 0-1.3.6c-1 3.3-1.3 7.6-4.8 10.4q-.4.3-.4.8l-.9 28.5a1 1 5.8 0 0 .8 1l12.4 2.3a1 1 0 0 0 .8-.7l.9-27.5a1 1 0 0 0-.6-.9q-1-.4-1.6-1.4-.2-.5.2-1.8m-11.6-3 2.6-7.7v-.1a2 4 18.7 0 0-3.2 3.1l-.1.4a2 4 18.7 0 0 .6 4.4zm116.1-8-.2-.1-2.3.4a.3.5 83 0 0-.4.4l-.7 38.2q0 1 .6.3l.7-.6a2 2 0 0 0 .7-1.5zm-41.7 1 2.4 7.5a.1.1 0 0 0 .2.1 3.9 2 72 0 0 .7-4.3l-.1-.4a3.9 2 72 0 0-3.1-3zm-7.9 6c-.3 2.7 2.8 6.8-1 8.2l-.5.6-.8 26.7.7.5 11.3-3a1 1 83.7 0 0 .7-.8l.8-26.5q0-.5-.3-.8c-3.4-2.6-4.2-6-5.2-10a1 1 0 0 0-1.4-.6q-3.8 2-4.3 5.6m-30.8 8.8c-3.2-1.8 0-5.9-1-8.9q-1.3-4.2-5.6-4.6c-3.3-.4-6.7 2-6.3 5.7.3 2.5.1 4.3-1.6 7l-.3.9-.5 28a1 1 0 0 0 .8.9l13.4.4a1 1 1.7 0 0 .7-.7l.8-27.9a1 1 14.9 0 0-.4-.8m97.5-7.8q-.2-.5-.3 0l-.9 7.3q0 .6-.6.8-1 .3-2.3.1a.6.6 2.2 0 0-.7.7c.3 6 .2 10.2-3.5 14.8q-6 7.3-14.9 11.8-16.4 8.5-35.8 11.7-46.6 7.6-92.7-5c-8.6-2.4-18.5-6.3-25.7-10.2-11.5-6.2-21.8-13.7-25.5-26.5-1-3.3-.8-7-.8-9.9q0-.9-.4 0c-4.8 8.2-.4 19 5.7 25.4a93 93 0 0 0 39.7 23q40.1 12.9 83 9.5c15.3-1.2 30.9-4.5 44.8-9.9 16.8-6.4 40.5-22 31-43.6m-88.1 7.2-.9.5q-.4.2-.4.7l-.9 28.4a1 1 87.6 0 0 1 .8l11.9-1.4a1 1 87.7 0 0 .9-1l.8-26.9-.3-.8c-2.5-3-2.7-6-4-11a2.4 2.4 0 0 0-2.8-1.7c-4.4.8-6.1 4-5.4 8.2l.6 3.3a1 1 71.5 0 1-.5 1m76-11.4q-1 4.9-2.6 8.4-1 2.5-1 4.6 0 10.9-.7 18.2-.1 1 .7.4 3-1.8 4.5-4.3.3-.4.1-.8c-.7-1.6-1.1-2.3-1.2-3.9q0-11.4.4-22.8v.1zm-63.9 6a3 .6 73.3 0 0-.3-3 3 .6 73.3 0 0-1.4-2.7 3 .6 73.3 0 0 .3 3 3 .6 73.3 0 0 1.4 2.7m-82.7-4.3a.6.6 0 0 0-.7.6l-1.2 38.5.5.6 1.7.3.6-.5 1.2-38.6-.5-.6zm123.9 2.3-.3.5-1.2 37.8a.6.6 0 0 0 1 .6l1.4-.8.4-.5 1-37.8a.6.6 0 0 0-.8-.6zm-146.7 8.5q-2.7-3.4-4-6.4-.9-1.7-1 .2l-.7 19.6a3 3 17.9 0 0 1.1 2.2l4.4 3q1.2.7 1.3-.7.4-7.7.5-14.2 0-1.8-1.6-3.7m45.4-4a1 1 0 0 0-.7-.9h-1.5a1 1 0 0 0-.8.8l-1 38.2a1 1 0 0 0 .8.8h1.5a1 1 0 0 0 .8-.7zm83.5 1-.6.6-1 37.3a1 1 0 0 0 .8.7l1.4-.3a1 1 0 0 0 .6-.7l1-37.3a1 1 0 0 0-.8-.7zm-61.8 2.2a1 1 0 0 0-.7-.7h-1.6a1 1 0 0 0-.7.6l-1 38.4a1 1 0 0 0 .7.7h1.6a1 1 0 0 0 .7-.6zm22.7.8a1 1 0 0 0-.6-.7h-1.8a1 1 0 0 0-.7.6l-1 39 .6.6h1.8a1 1 0 0 0 .7-.6zm21.3.2a1 1 0 0 0-1-1h-1.2a1 1 0 0 0-1 1l-1.1 37.4a1 1 0 0 0 1 1h1.1a1 1 0 0 0 1-1zm39.7 13.3v.3l-.5 14.4a.4.4 0 0 0 .5.3l7.1-3.6q.5-.3.5-.8l.5-18.9zM128 403.2a51 51 0 0 1-9.3-6.8.3.3 0 0 0-.5.2l-.5 13.8q0 1.1 1 1.5l9 3.6q.4.2.4-.3l.3-11.3q0-.5-.4-.7m88.6 51.5q0 .2.2.3 1.8.2 3.6-.4.2 0 .1-.2-1.7-9.8 5.7-13.1 3.7-1.6 7 .6 4.6 3.3 3.6 9 0 .5.5.6h1.8l.6-.2q1.6 0 1.3-1.2-1.8-7.5 3.4-11.6c4-3 9-2.5 10.8 2.6.4 1.5 0 3.7 0 5q0 .7.7.5l3.1-.6a.6.6 69.8 0 0 .4-.9c-2-3.5-.4-8.8 1.7-11.7 2.5-3.3 6.2-5 9.2-.8q1 1.5 1.2 6.2l.6.6q.5 0 .8-.5.5-.9.5-2c0-5.4.2-10.8 4-14.5 2.1-2 4-.1 5.3 1.2q.9 1 .9-.3c0-2.8.7-6.6 1.8-8.7q1.5-2.6 4.2-2.7l.6-.6.1-4.4q0-.9-.6-.3-13.2 13.8-32.1 20.2-19.3 6.6-38.8 8.5c-31.4 3-65-.6-94.8-11.8q-10.5-4-20.4-10-9.5-5.8-15.7-14.5-.8-1.2-1 .3l-1 16h.1l.2.3q.1.2.2 0c.4-2 2.5-8.7 5.9-6.6 4.3 2.8 5.4 10.3 4.8 14.8q-.4 3-.4 5.6 0 .5.4.4h.4a1 1 0 0 0 .6-.8q-.2-3.6 1.7-6.3c2.2-3.2 5.9-1.8 7.8.6 3.1 4.2 3.6 8.4 2.8 13.4q-.3 1.6 1.4 2h.4q1.6.3 1.6-1.4c.1-2 0-4.3 1.6-5.8q3.4-3.4 7.9-1c5.1 2.8 6 8.2 4.9 13.6q-.2 1 .8 1.3l2.2.6a1 1 0 0 0 1-.8c-1-14.2 20.6-11 16.8 4.6a1 1 0 0 0 .8 1l3.7.1q.5 0 .4-.4c-2.3-8.4 6.7-13.5 13.3-8.2q5 4 3 10.9a1 1 15.3 0 0 .5.8q2.4.6 4.9.3a1 1 79.2 0 0 .6-1c-1.5-6.6 3-11 9.3-10.5 6.1.6 10.2 6 7.6 11.9a.5.5 0 0 0 .5.7l5.5.2a.5.5 83.4 0 0 .5-.7q-1.8-6.5 3-10 5.2-3.5 9.7-.5 5.2 3.5 4.4 10.3m35.7-35.8.4-12.1q0-.6-.5-.3l-9.6 4.9q-.5.2-.5.8l-.3 9.5q0 1 .9.7l8.7-2.3a1 1 0 0 0 1-1.2M149 412.8l-12.8-5.2a.3.3 0 0 0-.4.2l-.3 10a1.1 1 8.6 0 0 .8 1l12 3.2a.4.4 7.8 0 0 .5-.4l.3-8.7zm-60 5h5l.2-.3v-.3a6 2.6 89.2 0 0-2.8-6 6 2.6 89.2 0 0-2.6 6.1v.3zm145.8-3a.5.5 0 0 0-.6-.5l-11.8 3.2-.4.4-.2 8.2.5.4 11.8-2.1.4-.5zM170 426.2a.4.4 0 0 0 .4-.4l.3-7.8-.3-.4-13.3-2.5a.4.4 0 0 0-.5.4l-.2 7.8.3.4zm117.4-5.6 2 .1a1 1 0 0 0 .8-.6v-.3a1.6 5 5 0 0-1-5h-.5a1.6 5 5 0 0-2 4.7v.3a1 1 0 0 0 .7.8M193 420a.4.4 0 0 0-.4-.4l-14.2-.9a.4.4 0 0 0-.4.4l-.5 7.2a.4.4 0 0 0 .4.5l14.2.8a.4.4 0 0 0 .5-.4zm8.2 7.6 12.5-.6.5-.6-.4-6.3a1.4.3 86.9 0 0-.3-1.4l-13 .7a1.4.3 86.9 0 0-.2 1.4l.3 6.3zm-106.3 4c-1.4-2.2-.7-7.7-.3-11q.2-1.1-.9-.9l-.5.2q-1.1.3-1.2 1.4l-.5 16.7q0 1 1 .9l2.1-.4q1.1-.2 1.1-1.3c0-1.7.3-4.1-.8-5.7m-5-10.4a1 1 0 0 0-1-1 1 1 0 0 0-1 1l-1.3 33.2a1 1 0 0 0 1 1 1 1 0 0 0 1-1zm198 2.8a1 1 0 0 0-1-1 1 1 0 0 0-1 1l-1.2 29.5a1 1 0 0 0 1 1 1 1 0 0 0 1-1zm-185.6-.4q-2 1.9-1.7 5.3 0 .6.6.7 2.8.5 5.3-1.3.5-.4.3-1-1-2.7-2.6-3.8a2 2 41.4 0 0-1.9.1m178.8 7.6q1 .1 1-1c0-1.6-.4-5-1.9-5.9q-1.2-.8-2 .4-2 2.6-1.5 5a2 2 0 0 0 1.5 1.3zm-173.7 6.2 1-5.6q.3-1.7-1.3-1l-2.7 1q-1.6.6-1.7 2.3-.4 4-.2 8.9c0 3.7 4 8.2 6 10.6q.7.9.8-.2l.6-12q0-.6-.4-.9-1.5-1-2-2-.2-.6-.1-1m12.8-5.5c-3.4-.6-4.6 3-4.4 6a1 1 0 0 0 1.1.8q3.4-1 5.1-4l.2-.9q-.3-1.6-2-1.9m-19.9 1.4a1 1 0 0 0-1-1.1 1 1 0 0 0-1.2 1L97 470.6a1 1 0 0 0 1 1h.1a1 1 0 0 0 1.1-1zm167.7 5.8a.6.6 0 0 0 1-.5q.2-3-1.8-5.8a1 1 0 0 0-1.5-.2c-2.5 2 .6 5.4 2.3 6.5m14-5.4h-1.4l-.4.4-.4 30.8a1.2 3.7.6 0 0 1.2 3.7 1.2 3.7.6 0 0 1.2-3.7l.3-30.8zm-157 10.8q2.5-5 0-9.6a.4.4 0 0 0-.8 0q-2 4.5-7 6.4-.4.2-.4.7l-.6 18.7q0 .9.7 1.4l9.7 6.7q.4.2.4-.2l.7-20.3a1.5 1.5 0 0 0-1.2-1.5q-1-.3-1.5-1.3-.3-.5 0-1m150.1-3.8q-1.4 2.8-1 5.7.2.7.4 0c1.7-4.3 2.9-7.2 2.7-11.4q0-.2-.2-.3a.2.2 17.4 0 0-.3.2c-.5 2-.5 3.7-1.6 5.8m-12.5-5q-1 1.7-1.4 3.5-.3 1.5.2 2.9c.9 3 1.3 5-2 6.7a1 1 76.2 0 0-.6 1.2l-.4 13.7q0 1.5 1 .5l6.1-5.7q1.4-1.2 1.4-3l.4-13.2q0-.6-.5-1-2.6-1.8-3.5-5.4-.2-1-.7-.1M135.3 441q-1.3 2-1 4.3a.5.5 0 0 0 .8.3q1.6-1.3 2.7-3 1-1.5 1.7-3.4a.5.5 0 0 0-.5-.6q-2.3.4-3.7 2.4m10.6 9.4 1-3.8a5 5 0 0 0-1.2-4.9l-1.6-1.5q-2.6-1.8-3.1.8-.8 4-5.2 7a2 2 73.5 0 0-.9 1.7l-.7 22.1a1 1 11.5 0 0 .6.9l11.7 4.7a1 1 0 0 0 1-.7l.7-23.2-.4-.7q-1.4-.7-1.7-1.4-.3-.4-.2-1m97.1 2.2-1.4.7a1 1 77.4 0 0-.5.9l-.6 20.6q0 .5.4.3l9.5-4.8a2 2 77.5 0 0 .8-1.3l.6-19.3q0-.5-.3-.8-3.5-3.5-3.4-7.6 0-2.8-2.2-1-.6.4-1.5 1.4a6 6 61.4 0 0-1.6 5l.9 4.5a1.3 1.3 0 0 1-.7 1.4m7-12.4q.2 3.1 2 5.6a.5.5 0 0 0 1-.2q.8-4-2-6a.7.7 0 0 0-1 .6M90.1 457.6l-1 .2q-.7.1-.4.9 2 5.5 5.4 9.4.6.6.6-.2l.8-25.7q0-1-1-.8l-2 .4q-1.3.2-1.3 1.4l-.4 13.6q0 .7-.7.8m21.7 23.7a.9.9 0 0 0 1.5-.7l1-37.5-.3-.7-.8-.6a1 1 0 0 0-1.4.6l-1.1 37.6.3.7zM272 443a1 1 0 0 0-1.1-1.1h-.2a1 1 0 0 0-1 1l-1 36.9a1 1 0 0 0 1 1h.2a1 1 0 0 0 1-1zm17.3 6c-.6 3 1.3 7.4-3.3 8.2q-1 .1-1 1.1c.3 5.2.8 8.8-2.5 13.8q-6.4 9.5-17.6 15-16.8 8.1-35.6 11.2a204 204 0 0 1-109-10.6q-14.3-5.8-25-15.4-5.6-5-9.4-14-1.6-3.8-1.5-7.3 0-4.1.5-7.6.3-2.2-.8-.2c-8.7 17.3 8.6 33.5 22.2 41.4q14.6 8.5 33.5 13.5 44.1 11.6 89.3 4.1 18.5-3 36.8-11.3c12.6-5.7 25.4-16.8 26.4-31.6q.3-4-2.2-10.5-.5-1.3-.8.1m-121.1 6.6a1.3 1.3 0 0 1-.7-1.4l.7-3.4c.7-4.1-1.6-7.4-5.8-8a2 2 0 0 0-2.1 1.3c-1 3.3-1.8 7-4.3 9.2l-.2.5-.8 24.8a1 1 0 0 0 1 1.2l12.3 2.3q.6 0 .6-.6l.5-24q0-.9-.2-1.1-.5-.6-1-.8m54.5.6c-2 1.1-1.4 2.5-1.5 4.4l-.6 20.1q0 .4.5.3l11-2.9a1.3 1.3 0 0 0 1-1.2l.7-22.6q0-.4-.4-.8c-3.3-3.3-3.3-5.7-3.8-9.7a1 1 81.1 0 0-1-.7c-6.9 1.3-6 6.4-5.2 11.7a1.3 1.3 0 0 1-.7 1.4m-66.6-10q-.3 1.3 0 2.6.1.7.5.1.3-.9.5-2.4c.2-.8.7-1.7.7-2.3q0-.7-.5-.2-.9 1-1.2 2.3m78.4 4a3.3.8 71 0 0-.3-3.3 3.3.8 71 0 0-1.9-3 3.3.8 71 0 0 .3 3.5 3.3.8 71 0 0 1.9 2.9m-44 5.1c.4-1.7 1.1-4 .7-5.6-1.7-6-12.2-6.4-12.3 1 0 2.2.1 4-1.6 6.4l-.3.9-.7 24q0 1.3 1.3 1.3l13.3.4a1 1 0 0 0 .7-.6l.7-24.1q0-.5-.3-1-1.6-1.8-1.4-2.7m11-2.3c.4 2.3 1.4 4.5-1.1 5.2l-.4.4-.7 24.6a1 1 87.4 0 0 .7.6l12.3-1.4a1 1 0 0 0 .6-.7l.7-23.8q0-.5-.3-1-2.8-3.6-2.1-8.5a2 2 0 0 0-1.3-2.3q-2-.9-4-.2-5.1 1.9-4.4 7m76.6-6q.2-1.4-.7-.2a19 19 0 0 0-3.6 9l-.4 22.3q0 .7.4.3 3.4-2.5 5.4-6.8.2-.4 0-.8-1.6-2-1.7-3.4 0-11.2.6-20.3m-145.4 2.5a1 1 0 0 0-1-1h-.8a1 1 0 0 0-1 1l-1 38.5a1 1 0 0 0 1 1h.8a1 1 0 0 0 1-1zm-30.2.3c-.5 5.3 0 14.8-1.2 23.2q-.1 1 .7 1.6l5.6 4.3q1 .8 1.1-.5l.6-19.8a1 1 0 0 0-.4-.9q-3.3-3.2-5.8-8-.6-1-.6.1m154.3.9a1.2 1.2 0 0 0-1.2-1.3h-.1a1.2 1.2 0 0 0-1.3 1.2l-1.1 37.3a1.2 1.2 0 0 0 1.1 1.2h.2a1.2 1.2 0 0 0 1.2-1.1zm-42 2.8q-.2-2.4-1.2-3.6-.4-.6-.5.1-.2 2 .7 3.6 0 .2.4.3h.3zm-63.3-.2a1 1 0 0 0-.9.6l-1.2 39.8a1 1 0 0 0 .6.7l1.4.4a.7.7 0 0 0 .9-.7l1.2-39.7-.5-.7zm87.3 1.8a1 1 0 0 0-1-1.2h-.6a1 1 0 0 0-1.2 1.1l-1 38.4a1 1 0 0 0 1 1.1h.7a1 1 0 0 0 1.1-1zm-64.1 2.8a1 1 0 0 0-.9-.8h-1.3a1 1 0 0 0-.9.8l-.7 39.2a1 1 0 0 0 .8.9h1.3a1 1 0 0 0 .9-.8zm41.8-.5a1 1 0 0 0-.6.8l-1.2 39.2a1 1 0 0 0 1 .8l1.5-.3a1 1 0 0 0 .6-.8l1.2-39.2a1 1 0 0 0-1-.8zm-19 1.3a1 1 0 0 0-.6-.7h-1.6a1 1 0 0 0-.7.7l-.8 39.6a1 1 0 0 0 .6.7h1.6a1 1 0 0 0 .7-.7zm61.2 9.5q-.2.2-.2.5l-.5 18.4a.5.5 0 0 0 .6.5l7.3-3.7q.4-.2.4-.7l.6-22.3-.1-.1zM127 472.6l-.1-.3-10.1-7.7a.3.3 0 0 0-.5.3l-.6 18 .2.3 10.2 4.2a.3.3 0 0 0 .5-.3zm135 56.3q-.9-3.7-.4-8.8 1.4-15 10.2-25.4c2.9-3.4 9-5.2 12.5-1.3q2.9 3.2 3.2 7.5h.4l.1-.2.5-23.6q0-.5-.4-.2c-1 .7-1.6 2-2.2 2.7q-9.3 9.6-22.4 15-21 8.6-42.8 11.2a204 204 0 0 1-108.4-15.2q-12.6-5.8-22-15.3l-5.5-6q-.4-.6-.3 0 3.5 12.5 3 25.8 0 .5.3 0l1.2-1.6q5.8-7.7 14.2-2.5c8 5 12.6 15.9 14.1 24.8q.7 3.8 1 7.7l.1.1h.1q.2 0 .2-.2 1.5-11 11.2-15c9.6-4 19.3 0 26 7.2q8.8 9.9 7.5 23.2 0 .3-.3.3l-1.3-.3q-.3 0-.3-.3-.5-6.4-.8-8.3c-1.6-9-10-19.1-19.3-20.6-12.4-2-20.1 5.6-21.5 17.5q-.2 2-2 1.1a3 3 11 0 1-2-2.8q0-1.8-.3-2.7t-.4 0l-.6 3.9c-.3 2.2 1.2 2.6 3 3.4q3.4 1.5 7 .9.5-.1.6-.6l.3-3.4c.5-6.7 4.5-11.4 11-12.3 8.6-1 16.4 5.6 20.7 12.5 2.4 3.8 2.2 7.3 2.5 12.8q0 1.4 1.5 1.5l8.1.2a1 1 0 0 0 .8-.7q.1-3.3.6-5.7c2.2-12 16.4-16.7 26.8-12.7 7 2.7 10.9 7.4 11.5 15.1l.2 4.4.5.5h9a1 1 85.7 0 0 1-1.2q-1.4-9.3 3.9-16.2c5.5-7.2 16.8-13.3 25-7 3.6 2.8 4.3 7.7 4.3 12.2a1.3 1.3 2 0 0 1.2 1.3c3 .2 6.8.6 9.8-1.4q.3-.2.2-.6v-.4q0-.4-.4-.2l-1 .3q-.6.3-.7-.4m-11.5-38 .2-.3.5-17.6a.3.3 0 0 0-.4-.3l-10 5.1-.3.3-.4 15a.3.3 0 0 0 .4.4zm-102.9-10.4-.2-.3-12.7-5.1a.3.3 0 0 0-.4.3l-.5 14.6.3.3 12.7 3.5a.3.3 0 0 0 .4-.3zm72.5 16.8.3.3 11.1-2q1-.3 1-1.3l.5-13.4q0-.5-.5-.4l-11.4 3a1 1 83.8 0 0-.6.8zm-51.4-12.5-.3-.3-13-2.4a.3.3 0 0 0-.5.3l-.3 12.5a.3.3 0 0 0 .2.4l13 2.4a.3.3 0 0 0 .5-.4zm-84.6-1-.4 17.9.2.1a1.2 7.5 1.2 0 0 1.3-7.4V491a1.2 7.5 1.2 0 0-1-7.5zm115 15a.6.6 0 0 0 .6.7l12.2-1.4.5-.6.4-12.2a.6.6 0 0 0-.7-.6l-12.2 1.4-.5.6zm-7.4-12a1 1 1.6 0 0-.7-.8l-14.2-.4q-.4 0-.4.4l-.3 11.6a1 1 0 0 0 1 1l13.3.4a1 1 0 0 0 1-.9zM115 518q.2 0 .2-.2c-1.3-8.1-7-23.7-16-26-9.4-2.4-12.3 9.8-12.2 16.3q0 .7.8.9l4.2.8a1 1 8.1 0 0 .8-.6c.4-3.3.6-6 1.9-8.7 1.6-3.6 5.8-4.2 8.7-1.8q8.8 7 11.3 19.2zm172-5a2 2 12.1 0 1-1.2-1.5c0-4.5.2-20.2-8.3-17.7-5.4 1.7-10.1 12-11.6 17l.1.2.3-.1c1.5-4 4.1-10 9.2-10.4 5.9-.6 4.8 10.3 5 13q.1.9.9.8l5.4-.7q.3 0 .2-.3zm-190.6-1.6a1.4 1.4 0 0 1 .4-1.5q3.4-3.3 8-5.5.4-.3.2-.7c-1.4-2.3-5.5-6.3-8-2.5q-1.5 2.3-1.7 6.3-1 20.2-1 25.6-.1.6.3.2c7.3-6.2 15.5 5.5 18.2 11h.2l.3-13.1-.2-.6c-.7-1.4-1.3-1.6-1-3.5q2-11.5-5.1-21.3-.7-1-.3.1l5 12.2-.1.7q-4.2 4-8.6 6.3a1 1 0 0 1-1.6-.6zm181 3.4-4.7 11.7a1.2 1.2 0 0 1-2 .4l-4.5-4.3q-1-1-1 .4c.2 2.3 1.3 5 .9 7.5-.3 1.4-1.7 1.8-1.7 3.4l-.5 25.4q0 .7.5.3 7.4-4.9 13-10.3a2 2 67.8 0 0 .6-1.4l.5-28.9q0-1.9-.3-4.3c-.4-3.7 0-7.2-1.3-11a1.6 1.5 70.3 0 0-2-.9q-2.3 1-3.3 2.7v.7l5.7 7.8q.3.4 0 .8m-168.6 3 .1-.5-3.6-9.3a.4.4 0 0 0-.6-.2l-4.3 3.1a.4.4 0 0 0-.2.5l3.8 10a.4.4 0 0 0 .7.1zm162.5-7.8q-.5-.8-.8 0l-3.3 8.2q-.5 1.2.3 2.1l2.3 2.6q.7 1 1.2-.2l2.8-6.9q.4-1-.2-2zm-187 .8-.6-.6a.6.6 0 0 0-.7.6L81 564.4l.6.6a.6.6 0 0 0 .7-.6zm7.7 34 19.3 14.6a.5.5 0 0 0 .8-.5v-.4l-.2-.2Q97.5 547.2 95 544.7q-1.4-1.3-2.5-1a.8.8 0 0 1-1-.9l1-30.2q0-.3-.3-.3l-5.5-1q-.3 0-.3.2L84.3 582q-.1 3 2.7 4.1l.4.2q2.7 1 2.8-1.8l1.1-39.3q0-.9.7-.4M287 516h-5.3q-.6 0-.6.6l-1.5 68.4q-.1 3.2 3 2.7l.7-.2q2.4-.4 2.5-3l2-67.6a1 1 0 0 0-.8-1m-160 17.2q-.3.4-.3 1l-.9 29.3a2 2 11.4 0 0 1 1.4q14.3 5.6 29.1 8.4 1 .1 1-.9.5-13.4.7-24.7c.1-4-.5-7.5-.4-10.9.1-5.5-1.6-8.5-5.3-12.6-4.2-4.7-10.3-8.7-16.5-7-5.2 1.3-7.2 5.3-7.5 10.5-.2 2.7.1 4-.9 5.5m108.7 10a.6.8 40.7 0 1-1 .3l-9.8-10.6a1.5 1.5 0 0 1 0-2l9.6-11.4q.1-.2 0-.1c-5.4 2.5-12 8.3-12.5 14.6v7.6c.1 1.4-.6 2.6-.7 4l-.8 28q0 .7.7.6 15.2-2.6 28.5-7.6a1 1.1 80.3 0 0 .7-1l.8-27.9q.1-3-.2-4c-.9-3.1-.2-5.6-1-9-1.5-6.8-8.5-8.1-14.4-5.7q-.6.3 0 .6 6.6 3.7 10.2 8.5a2 2 45.6 0 1 0 1.9zm5.9-15.5.4-.4a.1.1 0 0 0 0-.2l-.5-.5a6.7.3 45.8 0 0-4.9-4.6l-.1.2a6.7.3 45.8 0 0 4.4 5l.5.5a.1.1 0 0 0 .2 0m-2.5.9v-.3l-4-5.4a.3.3 46.3 0 0-.5 0l-5.6 7.3v.6l4 4.2a1 1 0 0 0 1.2 0zM173.2 576l30.5.9a2 2 0 0 0 2-2l1-34.4a16.7 16.7 1.7 0 0-16.1-17.1h-1.2a16.7 16.7 1.7 0 0-17.1 16l-1 34.5a2 2 0 0 0 1.9 2m-89 11.3c-2.1-2.5-2.8-3.3-2.5-7l.5-11.7q0-.5-.5-.7-2.2-1.2-2.6-2.8-.4-1.8-.2-7.5l1-26.8q0-.7-.6-.3L4.5 575a.5.5 0 0 0 0 .9l184.7 106.6q.5.3 1 0L371 573.1a.6.6 44.3 0 0 0-1l-80.3-46.5q-.3-.2-.7-.1l-.2.3q-.3 29.7-1.2 58.6c-.2 5.2-5.9 7-10.1 5q-.5-.2-.9.2l-5.7 5.1c-2.6 2.4-6.3 4.5-8.6 6.2q-.4.3-.4.8c-.2 3.5.5 6.6-3.2 8.7a8 8 0 0 1-9.7-1.9 2 2 59.6 0 0-1.6-.4q-15.1 5.4-28.3 7.4l-.6.6c-1 6.4-12.4 7.8-14.6 1.8a1 1 0 0 0-.8-.4q-16.5 1.3-33-.5-.8-.1-1.2.7-1.3 3-3.8 3.3c-3.8.5-10-.3-10.4-5a1 1 2.4 0 0-.9-1q-15-2.6-29.5-8.3-.5-.2-.7.3c-2.2 6.7-14.9 4-13.7-3.6l.2-2.3q0-.5-.4-.8-8.6-5.6-15.9-12.1a3 3 55.2 0 0-2.6-.5c-2.2.9-6.3 1.6-8-.4m151-49.6a1 1 0 0 1-1.5 0l-5.6-6a.4.4 0 0 0-.6 0l-.4.3q-.2.2 0 .4l7.6 7.3q.3.2.5 0l7.7-10.1v-1.1a.3.3 0 0 0-.6-.1zm-119.5-6q-.3 0-.3.2l-2.1 71.4q-.2 4.5 4.2 5h.3q4.2.8 4.4-3.7l2.1-70.8a.7.7 0 0 0-.9-.8q-3.9 1-7.8-1.2m-19.4 10.9c2-4.1 6-5 9.4-1.7q5.2 5.1 4.8 12.6 0 .4.3.6l1.4 1a.3.3 0 0 0 .5-.3c-.2-2.1-.3-5.6-1.3-7.8-2.5-5.4-9.3-16.8-16-11.6q-1.2.8-1.3 2.5c-.2 2-.5 4.3 1.6 5zm165.5-8.2-7.9-.2-.3.4-2 69.9a4.2 4.4 1.6 0 0 4 4.5h.3a4.2 4.4 1.6 0 0 4.3-4.3l2-69.9a.4.4 0 0 0-.4-.4m-162.4 8.4-.8.5a1 1 48.2 0 0 0 1.5l9 7q.8.6.6-.4-1-3.9-2.9-7.2a7.3 7.5 1.5 0 0-2.3-2.6q-2-1.4-3 .6-.2.4-.6.6m69.6 1.3-8.7-.3q-.4 0-.4.4l-2.1 70q-.1 3.8 3.6 4.2l2.4.3q3.8.4 4-3.3l2-70.5q0-.8-.8-.8m40.7.6q-.8 0-.8.8l-1.8 70.2q-.1 3.7 3.6 3.5l2.4-.2q3.8-.2 3.9-4l1.8-69.6q0-.4-.4-.4zm-114.1 5.7a1 1 0 0 0-.8-.8h-.5a1 1 0 0 0-.8.8l-1 34a1 1 0 0 0 .7.8h.5a1 1 0 0 0 .8-.7zm11.4 44.3a.3.3 0 0 0 .5-.3l1-33.9v-.3l-10.3-7.7a.3.3 0 0 0-.5.2l-1 34v.2zm156.8-31.3-.5 17.2a.3.3 0 0 0 .6.3q7.1-4.6 12.7-10a2.5 2.6 68.7 0 0 .7-1.7l.5-16q0-1.1-.7-.4-5.9 5.5-12.6 9.4a1 1 76.3 0 0-.7 1.2m-151.4-1.8-.3-.3h-.8l-.3.2-1.3 35.7.2.3h.9l.3-.2zm13.8 5.7a.4.4 0 0 0-.6.4l-.5 16.9a2 2 11.9 0 0 1 1.4q14.2 5.8 29.5 8.4a.4.4 0 0 0 .6-.4l.5-17.6q0-.5-.5-.6-16-2.7-30-8.5M249 588a1 1 81.5 0 0 .7-1l.5-17.6a.3.3 80.8 0 0-.5-.3q-14.3 5.3-28.8 7.5-.6.1-.6.8l-.5 17.3.6.6q15.3-2.6 28.6-7.3m28.2-14.4q-6.2 5.8-13.5 10-.5.3-.5 1l-.4 13a.4.4 74.6 0 0 .6.3q7-4.4 13.3-11.2l.1-.4zm-89.4 23.9q9 .2 16.3-.3a1 1 88.8 0 0 1-1l.5-17a.4.4 89.2 0 0-.5-.5q-8.4.4-16.9.2t-16.9-1a.4.4 3.4 0 0-.5.5l-.2 17a1 1 3.7 0 0 1 1q7 .9 16.2 1m-62.5-9.2a.3.3 0 0 0-.5.3l-.4 14.8q0 .5.5.7 14.2 5.7 29.7 8.5a1 1 6 0 0 1-.9l.4-14.3q0-.5-.5-.6-16-2.8-30.2-8.5m123.7 2.2q-14.3 5-28.8 7.2l-.5.6-.5 14.3a.5.5 0 0 0 .6.5q15.1-2.5 28.5-7.6a1 1 80.1 0 0 .8-1.1l.4-13.5a.4.4 0 0 0-.5-.4m-44.3 9q-17.1 1.1-33.7-.8a.6.6 4.3 0 0-.7.6l-.4 14.6a1 1 2.5 0 0 .9 1q16.8 1.3 32.4.3a1.4 1.4 0 0 0 1.4-1.4l.4-13.9a.3.3 0 0 0-.4-.3"/><path d="M197.1 120.7a1.5 1.5 0 0 1-1.4-1.4l.3-23.1a7.9 7.8.7 0 1 8-7.7h1a7.9 7.8.7 0 1 7.8 7.9l-.3 23a1.5 1.5 0 0 1-1.5 1.5zm6.7-29.4-1.2.2q-4.3.5-4.3 4.7v7.6q0 .2.3.2h8.3l.3-.3.6-8.6q.2-4.3-4-3.8m6.5 4.5q.1 6.4-.4 12.7 0 .2.2.2t.2-.2q.5-4 .6-10.6 0-2.4-.5-3.6-.3-.8-.3 0v.5zm0 13.8-11.9-.2a.6.6 0 0 0-.6.7v.3q0 .4.5.4l11.2.3q.5 0 .6-.4zm0 4a.4.4 0 0 0-.5-.4h-11.4a.4.4 0 0 0-.4.4v4.5a.4.4 0 0 0 .4.4h11.4a.4.4 0 0 0 .4-.5zm5 426.4q.2-17 11.9-26.6c11.5-9.6 28-8.3 32.4 8q1.2 4.5 1.2 8.5 0 1-.8 1.2l-.5.2a.7.7 77 0 1-1-.6q-1-12.2-5.2-16.5c-7.4-7.7-17.8-4.8-25.2 1.5s-10 14.7-10.8 24.2l-.3.3h-1.6q-.2 0-.2-.2m-.7-.6q0 .7-.7.5h-.3q-1-.2-1-1.1c-1.3-12.2-6.8-21-19.6-22.7q-7.2-1-13.5 2.3-12.3 6.4-12.6 20.4 0 .4-.4.4h-1.8q-.2 0-.2-.3.1-10 6.1-16.5 11.4-12.2 27.8-7.6c10.7 3 16.1 13.5 16.2 24.6m-82.4-12.7 10-7.4a1.4 1.4 0 0 1 2 .4l9.6 13a1.4 1.4 0 0 1-.3 2.1l-11.2 8.1a1.4 1.4 0 0 1-2-.4l-8.5-14a1.4 1.4 0 0 1 .4-1.8m10.9-4.3h-.4l-5.5 3.9v.3l6 8.4h.4l5.4-3.8v-.4zm-.6 15.1q-2-1.6-6.5-9.4l-.5-.4-.7-.3a.3.3 0 0 0-.3.5l7 11.8q.4.5.8.2l9-6.4v-.5l-.1-.3a.6.6 0 0 0-1-.2l-6.8 5q-.5.4-1 0m45 10.3-10.2-11a1.6 1.6 0 0 1 0-2.2l11.2-10.2a1.6 1.6 0 0 1 2.2 0l10.2 11a1.6 1.6 0 0 1-.1 2.3l-11 10.2a1.6 1.6 0 0 1-2.3 0m7.8-14-5.7-6.2h-.4l-5.9 5.5a1.4.3-43 0 0-.8 1.1l5.8 6.2a1.4.3-43 0 0 1.2-.8l5.8-5.4zm2.7 1.3h-.3l-9 8.3h-.3l-7.6-8.2h-.4l-.5.5v.4l8.5 9.2h.4L199 536a.3.3 0 0 0-.1-.5z"/></svg>
