<svg xmlns="http://www.w3.org/2000/svg" viewBox="0 0 360 160" role="img" aria-label="Aurora Core">
  <defs>
    <linearGradient id="bg" x1="0" y1="0" x2="1" y2="1">
      <stop offset="0%" stop-color="#06111d"/>
      <stop offset="100%" stop-color="#103f53"/>
    </linearGradient>
    <linearGradient id="accent" x1="0" y1="0" x2="1" y2="0">
      <stop offset="0%" stop-color="#81f6d3"/>
      <stop offset="100%" stop-color="#8dc7ff"/>
    </linearGradient>
  </defs>
  <rect width="360" height="160" rx="28" fill="url(#bg)"/>
  <circle cx="62" cy="38" r="22" fill="#81f6d3" opacity=".08"/>
  <circle cx="300" cy="118" r="30" fill="#8dc7ff" opacity=".08"/>
  <rect x="28" y="28" width="104" height="104" rx="30" fill="#ffffff" opacity=".04"/>
  <rect x="28" y="28" width="104" height="104" rx="30" fill="none" stroke="#ffffff" stroke-opacity=".12" stroke-width="1.5"/>
  <circle cx="80" cy="80" r="15" fill="#f5fbff"/>
  <circle cx="80" cy="80" r="31" fill="none" stroke="#8ef2d4" stroke-width="4" opacity=".75"/>
  <path d="M62 48c11 8 16 18 16 32s-5 24-16 32" fill="none" stroke="#81f6d3" stroke-width="7" stroke-linecap="round"/>
  <path d="M80 42c16 10 24 20 24 38s-8 28-24 38" fill="none" stroke="#8dc7ff" stroke-width="7" stroke-linecap="round" opacity=".92"/>
  <path d="M98 48c11 8 16 18 16 32s-5 24-16 32" fill="none" stroke="#d6fff1" stroke-width="7" stroke-linecap="round" opacity=".82"/>
  <text x="154" y="74" fill="#f6fbff" font-family="system-ui, sans-serif" font-size="22" font-weight="800" letter-spacing="1.2">AURORA CORE</text>
  <path d="M154 96h146" stroke="url(#accent)" stroke-width="4" stroke-linecap="round"/>
</svg>