<svg xmlns="http://www.w3.org/2000/svg" viewBox="0 0 360 160" role="img" aria-label="Flux Garden">
  <defs>
    <linearGradient id="bg" x1="0" y1="0" x2="1" y2="1">
      <stop offset="0%" stop-color="#071310"/>
      <stop offset="56%" stop-color="#163a33"/>
      <stop offset="100%" stop-color="#2e6b55"/>
    </linearGradient>
    <radialGradient id="halo" cx="0.5" cy="0.42" r="0.42">
      <stop offset="0%" stop-color="#d9ffe9" stop-opacity=".3"/>
      <stop offset="60%" stop-color="#7ef7c6" stop-opacity=".12"/>
      <stop offset="100%" stop-color="#7ef7c6" stop-opacity="0"/>
    </radialGradient>
    <linearGradient id="vine" x1="0" y1="0" x2="1" y2="1">
      <stop offset="0%" stop-color="#d9ffe9"/>
      <stop offset="100%" stop-color="#7ef7c6"/>
    </linearGradient>
  </defs>
  <rect width="360" height="160" rx="28" fill="url(#bg)"/>
  <rect x="14" y="14" width="332" height="132" rx="22" fill="none" stroke="#d9ffe9" stroke-opacity=".11"/>
  <circle cx="180" cy="62" r="44" fill="url(#halo)"/>
  <circle cx="180" cy="62" r="34" fill="#12352c" opacity=".68" stroke="#d9ffe9" stroke-opacity=".18"/>
  <path d="M154 86c10-18 22-28 34-28s20 8 24 18c4 9 0 20-8 24-10 5-20 0-24-10-4-11 0-22 10-31 12-11 30-13 42-1" fill="none" stroke="url(#vine)" stroke-width="4" stroke-linecap="round" stroke-linejoin="round"/>
  <path d="M180 42v38" stroke="#d9ffe9" stroke-width="3" stroke-linecap="round"/>
  <path d="M172 56c-8-2-14-7-18-14 9-2 16 0 22 6" fill="none" stroke="#7ef7c6" stroke-width="3.5" stroke-linecap="round" stroke-linejoin="round"/>
  <path d="M186 70c7 1 13 5 18 12-8 2-15 0-21-5" fill="none" stroke="#7ef7c6" stroke-width="3.5" stroke-linecap="round" stroke-linejoin="round"/>
  <circle cx="180" cy="62" r="5.5" fill="#d9ffe9"/>
  <circle cx="162" cy="60" r="3" fill="#7ef7c6"/>
  <circle cx="198" cy="76" r="3" fill="#7ef7c6"/>
  <text x="180" y="120" text-anchor="middle" fill="#f8fffb" font-size="22" font-weight="700" letter-spacing="2.1" font-family="system-ui, sans-serif">FLUX GARDEN</text>
  <path d="M128 132h104" stroke="#7ef7c6" stroke-opacity=".42" stroke-width="2.5" stroke-linecap="round"/>
</svg>