<svg xmlns="http://www.w3.org/2000/svg" viewBox="0 0 360 160" role="img" aria-label="Horizon Labs">
  <defs>
    <linearGradient id="bg-horizon-labs" x1="0" y1="0" x2="1" y2="1">
      <stop offset="0%" stop-color="#151822"/>
      <stop offset="52%" stop-color="#213247"/>
      <stop offset="100%" stop-color="#6f5c34"/>
    </linearGradient>
    <linearGradient id="panel-horizon-labs" x1="0" y1="0" x2="1" y2="1">
      <stop offset="0%" stop-color="#f3fbff"/>
      <stop offset="100%" stop-color="#8fdcff"/>
    </linearGradient>
    <radialGradient id="glow-horizon-labs" cx="50%" cy="34%" r="70%">
      <stop offset="0%" stop-color="#ffda72" stop-opacity=".88"/>
      <stop offset="75%" stop-color="#ffda72" stop-opacity=".16"/>
      <stop offset="100%" stop-color="#ffda72" stop-opacity="0"/>
    </radialGradient>
  </defs>
  <rect width="360" height="160" rx="28" fill="url(#bg-horizon-labs)"/>
  <rect x="16" y="16" width="328" height="128" rx="22" fill="none" stroke="#fff7db" stroke-opacity=".08"/>
  <circle cx="286" cy="42" r="52" fill="url(#glow-horizon-labs)"/>
  <circle cx="72" cy="116" r="30" fill="#ffda72" fill-opacity=".08"/>
  <g transform="translate(24 30)">
    <circle cx="56" cy="50" r="42" fill="url(#panel-horizon-labs)" fill-opacity=".11"/>
    <circle cx="56" cy="50" r="42" fill="none" stroke="#8fdcff" stroke-opacity=".26"/>
    <path d="M27 58h58" stroke="#ffe28b" stroke-width="5.5" stroke-linecap="round"/>
    <path d="M25 68h62" stroke="#8fdcff" stroke-width="5.5" stroke-linecap="round" stroke-opacity=".88"/>
    <path d="M33 58c6-11 15-18 23-18s17 7 23 18" fill="none" stroke="#ffffff" stroke-width="4.8" stroke-linecap="round" stroke-opacity=".6"/>
    <path d="M38 68c4-7 10-11 18-11s14 4 18 11" fill="none" stroke="#ffe28b" stroke-width="4.8" stroke-linecap="round" stroke-opacity=".72"/>
  </g>
  <path d="M132 44h160" stroke="#fff7db" stroke-opacity=".14" stroke-width="2" stroke-linecap="round"/>
  <text x="132" y="72" fill="#fbf8ff" font-family="system-ui, sans-serif" font-size="30" font-weight="800" letter-spacing="1.4">HORIZON</text>
  <text x="132" y="108" fill="#ffd879" font-family="system-ui, sans-serif" font-size="22" font-weight="700" letter-spacing="2.8">LABS</text>
</svg>