<svg xmlns="http://www.w3.org/2000/svg" viewBox="0 0 360 160" role="img" aria-label="Ion Press">
  <defs>
    <linearGradient id="bg-ion-press" x1="0" y1="0" x2="1" y2="1">
      <stop offset="0%" stop-color="#171126"/>
      <stop offset="52%" stop-color="#27183c"/>
      <stop offset="100%" stop-color="#4a2f86"/>
    </linearGradient>
    <linearGradient id="panel-ion-press" x1="0" y1="0" x2="1" y2="1">
      <stop offset="0%" stop-color="#e8fcff"/>
      <stop offset="100%" stop-color="#79e8ff"/>
    </linearGradient>
    <radialGradient id="glow-ion-press" cx="50%" cy="34%" r="70%">
      <stop offset="0%" stop-color="#8fefff" stop-opacity=".92"/>
      <stop offset="75%" stop-color="#8fefff" stop-opacity=".18"/>
      <stop offset="100%" stop-color="#8fefff" stop-opacity="0"/>
    </radialGradient>
  </defs>
  <rect width="360" height="160" rx="28" fill="url(#bg-ion-press)"/>
  <rect x="16" y="16" width="328" height="128" rx="22" fill="none" stroke="#f4ffff" stroke-opacity=".08"/>
  <circle cx="286" cy="40" r="52" fill="url(#glow-ion-press)"/>
  <circle cx="78" cy="114" r="30" fill="#8fefff" fill-opacity=".08"/>
  <g transform="translate(24 30)">
    <circle cx="56" cy="50" r="42" fill="url(#panel-ion-press)" fill-opacity=".11"/>
    <circle cx="56" cy="50" r="42" fill="none" stroke="#8fefff" stroke-opacity=".26"/>
    <path d="M37 36h38" stroke="#f0fdff" stroke-width="7" stroke-linecap="round"/>
    <path d="M37 64h38" stroke="#f0fdff" stroke-width="7" stroke-linecap="round"/>
    <path d="M56 30v40" stroke="#8fefff" stroke-width="7" stroke-linecap="round"/>
    <circle cx="56" cy="50" r="11" fill="#dffcff" stroke="#67dcff" stroke-width="3"/>
    <path d="M73 40l8-5M76 52h10M73 60l8 5" stroke="#ffd57c" stroke-width="3.5" stroke-linecap="round"/>
    <path d="M39 50h-10" stroke="#ffd57c" stroke-width="3.5" stroke-linecap="round"/>
  </g>
  <path d="M132 44h160" stroke="#f4ffff" stroke-opacity=".14" stroke-width="2" stroke-linecap="round"/>
  <text x="132" y="72" fill="#f7fdff" font-family="system-ui, sans-serif" font-size="32" font-weight="800" letter-spacing="1.5">ION</text>
  <text x="132" y="108" fill="#86eaff" font-family="system-ui, sans-serif" font-size="22" font-weight="700" letter-spacing="2.8">PRESS</text>
</svg>