<svg xmlns="http://www.w3.org/2000/svg" viewBox="0 0 360 160" role="img" aria-label="Rover Labs">
  <defs>
    <linearGradient id="bg" x1="0" y1="0" x2="1" y2="1">
      <stop offset="0%" stop-color="#1a100b"/>
      <stop offset="56%" stop-color="#5f4127"/>
      <stop offset="100%" stop-color="#8c6841"/>
    </linearGradient>
    <radialGradient id="halo" cx="0.5" cy="0.42" r="0.42">
      <stop offset="0%" stop-color="#ffe2bb" stop-opacity=".28"/>
      <stop offset="60%" stop-color="#ffbf80" stop-opacity=".12"/>
      <stop offset="100%" stop-color="#ffbf80" stop-opacity="0"/>
    </radialGradient>
    <linearGradient id="rover" x1="0" y1="0" x2="1" y2="1">
      <stop offset="0%" stop-color="#fff1da"/>
      <stop offset="100%" stop-color="#ffb66f"/>
    </linearGradient>
  </defs>
  <rect width="360" height="160" rx="28" fill="url(#bg)"/>
  <rect x="14" y="14" width="332" height="132" rx="22" fill="none" stroke="#fff1da" stroke-opacity=".11"/>
  <circle cx="180" cy="62" r="44" fill="url(#halo)"/>
  <circle cx="180" cy="62" r="34" fill="#4d341f" opacity=".68" stroke="#fff1da" stroke-opacity=".18"/>
  <path d="M156 70h48l10 12h-68z" fill="url(#rover)" opacity=".28"/>
  <path d="M160 71h40l8 9h-56z" fill="none" stroke="url(#rover)" stroke-width="4" stroke-linejoin="round"/>
  <path d="M170 62h20" stroke="#fff1da" stroke-width="3" stroke-linecap="round"/>
  <circle cx="150" cy="88" r="11" fill="none" stroke="#fff1da" stroke-width="4"/>
  <circle cx="210" cy="88" r="11" fill="none" stroke="#fff1da" stroke-width="4"/>
  <circle cx="150" cy="88" r="4" fill="#ffbf80"/>
  <circle cx="210" cy="88" r="4" fill="#ffbf80"/>
  <circle cx="198" cy="54" r="5" fill="#fff1da"/>
  <path d="M198 49v-8" stroke="#fff1da" stroke-width="3" stroke-linecap="round"/>
  <path d="M180 46v10" stroke="#ffbf80" stroke-width="3" stroke-linecap="round"/>
  <circle cx="180" cy="62" r="5" fill="#fff1da"/>
  <text x="180" y="120" text-anchor="middle" fill="#fffaf6" font-size="22" font-weight="700" letter-spacing="2.1" font-family="system-ui, sans-serif">ROVER LABS</text>
  <path d="M130 132h100" stroke="#ffbf80" stroke-opacity=".4" stroke-width="2.5" stroke-linecap="round"/>
</svg>