<svg xmlns="http://www.w3.org/2000/svg" viewBox="0 0 360 160" role="img" aria-label="Tidal Works">
  <defs>
    <linearGradient id="bg" x1="0" y1="0" x2="1" y2="1">
      <stop offset="0%" stop-color="#06141b"/>
      <stop offset="55%" stop-color="#0d3648"/>
      <stop offset="100%" stop-color="#135e7a"/>
    </linearGradient>
    <radialGradient id="halo" cx="0.5" cy="0.42" r="0.42">
      <stop offset="0%" stop-color="#d2f6ff" stop-opacity=".3"/>
      <stop offset="60%" stop-color="#8fe8ff" stop-opacity=".12"/>
      <stop offset="100%" stop-color="#8fe8ff" stop-opacity="0"/>
    </radialGradient>
    <linearGradient id="tide" x1="0" y1="0" x2="1" y2="1">
      <stop offset="0%" stop-color="#f2fdff"/>
      <stop offset="100%" stop-color="#86e7ff"/>
    </linearGradient>
  </defs>
  <rect width="360" height="160" rx="28" fill="url(#bg)"/>
  <rect x="14" y="14" width="332" height="132" rx="22" fill="none" stroke="#d2f6ff" stroke-opacity=".12"/>
  <circle cx="180" cy="62" r="44" fill="url(#halo)"/>
  <circle cx="180" cy="62" r="34" fill="#0b3c52" opacity=".68" stroke="#d2f6ff" stroke-opacity=".18"/>
  <path d="M156 86c12-16 24-24 36-24s24 8 36 24" fill="none" stroke="url(#tide)" stroke-width="4" stroke-linecap="round"/>
  <path d="M152 96c14-10 28-14 42-14s28 4 42 14" fill="none" stroke="#d2f6ff" stroke-opacity=".9" stroke-width="4" stroke-linecap="round"/>
  <path d="M160 74c5-9 12-14 20-14s15 5 20 14" fill="none" stroke="#86e7ff" stroke-opacity=".9" stroke-width="3.5" stroke-linecap="round"/>
  <path d="M180 46v42" stroke="#f2fdff" stroke-opacity=".88" stroke-width="3" stroke-linecap="round"/>
  <path d="M168 70h24" stroke="#86e7ff" stroke-width="3" stroke-linecap="round"/>
  <circle cx="180" cy="62" r="5.5" fill="#f2fdff"/>
  <text x="180" y="120" text-anchor="middle" fill="#f8fdff" font-size="22" font-weight="700" letter-spacing="2.1" font-family="system-ui, sans-serif">TIDAL WORKS</text>
  <path d="M126 132h108" stroke="#86e7ff" stroke-opacity=".42" stroke-width="2.5" stroke-linecap="round"/>
</svg>