<svg xmlns="http://www.w3.org/2000/svg" viewBox="0 0 360 160" role="img" aria-label="Xenon Labs">
  <defs>
    <linearGradient id="bg-xenon-labs" x1="0" y1="0" x2="1" y2="1">
      <stop offset="0%" stop-color="#10131b"/>
      <stop offset="54%" stop-color="#20334f"/>
      <stop offset="100%" stop-color="#4a739c"/>
    </linearGradient>
    <linearGradient id="panel-xenon-labs" x1="0" y1="0" x2="1" y2="1">
      <stop offset="0%" stop-color="#f2fbff"/>
      <stop offset="100%" stop-color="#7edfff"/>
    </linearGradient>
    <radialGradient id="glow-xenon-labs" cx="50%" cy="34%" r="70%">
      <stop offset="0%" stop-color="#8cf3ff" stop-opacity=".9"/>
      <stop offset="75%" stop-color="#8cf3ff" stop-opacity=".16"/>
      <stop offset="100%" stop-color="#8cf3ff" stop-opacity="0"/>
    </radialGradient>
  </defs>
  <rect width="360" height="160" rx="28" fill="url(#bg-xenon-labs)"/>
  <rect x="16" y="16" width="328" height="128" rx="22" fill="none" stroke="#f4fbff" stroke-opacity=".08"/>
  <circle cx="286" cy="42" r="52" fill="url(#glow-xenon-labs)"/>
  <circle cx="84" cy="116" r="30" fill="#8cf3ff" fill-opacity=".08"/>
  <g transform="translate(24 30)">
    <circle cx="56" cy="50" r="42" fill="url(#panel-xenon-labs)" fill-opacity=".11"/>
    <circle cx="56" cy="50" r="42" fill="none" stroke="#8cf3ff" stroke-opacity=".26"/>
    <polygon points="56,20 84,36 84,68 56,84 28,68 28,36" fill="none" stroke="#8cf3ff" stroke-width="5.5" stroke-linejoin="round"/>
    <path d="M38 34l36 36M74 34L38 70" stroke="#f6fdff" stroke-width="5.5" stroke-linecap="round"/>
    <circle cx="56" cy="50" r="6.5" fill="#fff2b3"/>
    <path d="M56 30v-8M56 78v8M36 50h-8M84 50h-8" stroke="#ffd47d" stroke-width="3.5" stroke-linecap="round"/>
  </g>
  <path d="M132 44h160" stroke="#f4fbff" stroke-opacity=".14" stroke-width="2" stroke-linecap="round"/>
  <text x="132" y="72" fill="#f7fdff" font-family="system-ui, sans-serif" font-size="30" font-weight="800" letter-spacing="1.6">XENON</text>
  <text x="132" y="108" fill="#8af0ff" font-family="system-ui, sans-serif" font-size="22" font-weight="700" letter-spacing="2.8">LABS</text>
</svg>