<svg xmlns="http://www.w3.org/2000/svg" viewBox="0 0 360 160" role="img" aria-label="Y Studios">
  <defs>
    <linearGradient id="bg-y-studios" x1="0" y1="0" x2="1" y2="1">
      <stop offset="0%" stop-color="#15111f"/>
      <stop offset="52%" stop-color="#3a2049"/>
      <stop offset="100%" stop-color="#7b3e92"/>
    </linearGradient>
    <linearGradient id="panel-y-studios" x1="0" y1="0" x2="1" y2="1">
      <stop offset="0%" stop-color="#fff0ff"/>
      <stop offset="100%" stop-color="#ff98ea"/>
    </linearGradient>
    <radialGradient id="glow-y-studios" cx="50%" cy="34%" r="70%">
      <stop offset="0%" stop-color="#ffb4f4" stop-opacity=".88"/>
      <stop offset="75%" stop-color="#ffb4f4" stop-opacity=".16"/>
      <stop offset="100%" stop-color="#ffb4f4" stop-opacity="0"/>
    </radialGradient>
  </defs>
  <rect width="360" height="160" rx="28" fill="url(#bg-y-studios)"/>
  <rect x="16" y="16" width="328" height="128" rx="22" fill="none" stroke="#fff6ff" stroke-opacity=".08"/>
  <circle cx="288" cy="42" r="52" fill="url(#glow-y-studios)"/>
  <circle cx="70" cy="114" r="30" fill="#ffb4f4" fill-opacity=".08"/>
  <g transform="translate(24 30)">
    <circle cx="56" cy="50" r="42" fill="url(#panel-y-studios)" fill-opacity=".11"/>
    <circle cx="56" cy="50" r="42" fill="none" stroke="#ffb4f4" stroke-opacity=".26"/>
    <path d="M32 34l24 24 24-24" fill="none" stroke="#ffd0fb" stroke-width="7" stroke-linecap="round" stroke-linejoin="round"/>
    <path d="M56 58v22" fill="none" stroke="#91ebff" stroke-width="7" stroke-linecap="round"/>
    <path d="M56 58l-18 18M56 58l18 18" fill="none" stroke="#ffd0fb" stroke-width="7" stroke-linecap="round" stroke-linejoin="round"/>
    <path d="M41 43h30" stroke="#fff8ff" stroke-opacity=".42" stroke-width="2" stroke-linecap="round"/>
  </g>
  <path d="M132 44h160" stroke="#fff6ff" stroke-opacity=".14" stroke-width="2" stroke-linecap="round"/>
  <text x="132" y="72" fill="#fff8ff" font-family="system-ui, sans-serif" font-size="34" font-weight="800" letter-spacing="1.6">Y</text>
  <text x="132" y="108" fill="#ffb4f4" font-family="system-ui, sans-serif" font-size="22" font-weight="700" letter-spacing="2.8">STUDIOS</text>
</svg>