<svg xmlns="http://www.w3.org/2000/svg" viewBox="0 0 360 160" role="img" aria-label="Zenith Solutions">
  <defs>
    <linearGradient id="bg" x1="0" y1="0" x2="1" y2="1">
      <stop offset="0%" stop-color="#0c1420"/>
      <stop offset="100%" stop-color="#2b5d8f"/>
    </linearGradient>
    <linearGradient id="accent" x1="0" y1="0" x2="1" y2="0">
      <stop offset="0%" stop-color="#f6d78f"/>
      <stop offset="100%" stop-color="#8fe8ff"/>
    </linearGradient>
  </defs>
  <rect width="360" height="160" rx="28" fill="url(#bg)"/>
  <circle cx="60" cy="44" r="18" fill="#f6d78f" opacity=".07"/>
  <circle cx="302" cy="114" r="26" fill="#8fe8ff" opacity=".07"/>
  <rect x="28" y="28" width="104" height="104" rx="30" fill="#ffffff" opacity=".04"/>
  <rect x="28" y="28" width="104" height="104" rx="30" fill="none" stroke="#ffffff" stroke-opacity=".12" stroke-width="1.5"/>
  <circle cx="80" cy="64" r="20" fill="none" stroke="#f6d78f" stroke-width="4" opacity=".55"/>
  <path d="M43 112h74l-37-54z" fill="#f4fbff" opacity=".08" stroke="#f6d78f" stroke-width="6" stroke-linejoin="round"/>
  <path d="M43 112l37-54 37 54" fill="none" stroke="#f6d78f" stroke-width="6" stroke-linecap="round" stroke-linejoin="round"/>
  <path d="M80 46l5 11 11 5-11 5-5 11-5-11-11-5 11-5z" fill="#8fe8ff"/>
  <text x="154" y="74" fill="#f7fbff" font-family="system-ui, sans-serif" font-size="20" font-weight="800" letter-spacing="1.1">ZENITH SOLUTIONS</text>
  <path d="M154 96h146" stroke="url(#accent)" stroke-width="4" stroke-linecap="round"/>
</svg>