<svg xmlns="http://www.w3.org/2000/svg" viewBox="0 0 360 160" role="img" aria-label="Brick Harbor">
  <defs>
    <linearGradient id="bg" x1="0" y1="0" x2="1" y2="1">
      <stop offset="0%" stop-color="#20110d"/>
      <stop offset="56%" stop-color="#5b2417"/>
      <stop offset="100%" stop-color="#a04b2a"/>
    </linearGradient>
    <radialGradient id="halo" cx="0.5" cy="0.42" r="0.42">
      <stop offset="0%" stop-color="#ffd9b0" stop-opacity=".28"/>
      <stop offset="60%" stop-color="#ffb36b" stop-opacity=".12"/>
      <stop offset="100%" stop-color="#ffb36b" stop-opacity="0"/>
    </radialGradient>
    <linearGradient id="brick" x1="0" y1="0" x2="1" y2="1">
      <stop offset="0%" stop-color="#ffe4bf"/>
      <stop offset="100%" stop-color="#ffb36b"/>
    </linearGradient>
  </defs>
  <rect width="360" height="160" rx="28" fill="url(#bg)"/>
  <rect x="14" y="14" width="332" height="132" rx="22" fill="none" stroke="#ffe4bf" stroke-opacity=".11"/>
  <circle cx="180" cy="62" r="44" fill="url(#halo)"/>
  <circle cx="180" cy="62" r="34" fill="#4a1d12" opacity=".68" stroke="#ffe4bf" stroke-opacity=".18"/>
  <path d="M156 88h48" stroke="#ffe4bf" stroke-opacity=".92" stroke-width="4" stroke-linecap="round"/>
  <path d="M162 88v-14c0-10 8-18 18-18s18 8 18 18v14" fill="none" stroke="url(#brick)" stroke-width="4" stroke-linecap="round" stroke-linejoin="round"/>
  <path d="M162 66h36M168 78h24" stroke="#ffe4bf" stroke-opacity=".82" stroke-width="3" stroke-linecap="round"/>
  <rect x="149" y="72" width="62" height="12" rx="6" fill="#ffca91" opacity=".22"/>
  <path d="M156 90c8 4 16 6 24 6s16-2 24-6" fill="none" stroke="#ffd7ab" stroke-width="3.5" stroke-linecap="round"/>
  <circle cx="180" cy="62" r="5.5" fill="#ffe4bf"/>
  <text x="180" y="120" text-anchor="middle" fill="#fff8f2" font-size="22" font-weight="700" letter-spacing="2.1" font-family="system-ui, sans-serif">BRICK HARBOR</text>
  <path d="M125 132h110" stroke="#ffca91" stroke-opacity=".38" stroke-width="2.5" stroke-linecap="round"/>
</svg>
