<svg xmlns="http://www.w3.org/2000/svg" viewBox="0 0 360 160" role="img" aria-label="Cinder Loop">
  <defs>
    <linearGradient id="bg-cinder-loop" x1="0" y1="0" x2="1" y2="1">
      <stop offset="0%" stop-color="#120f18"/>
      <stop offset="55%" stop-color="#27172f"/>
      <stop offset="100%" stop-color="#6b2f63"/>
    </linearGradient>
    <linearGradient id="panel-cinder-loop" x1="0" y1="0" x2="1" y2="1">
      <stop offset="0%" stop-color="#f3d6ff"/>
      <stop offset="100%" stop-color="#cb8cff"/>
    </linearGradient>
    <radialGradient id="glow-cinder-loop" cx="50%" cy="34%" r="68%">
      <stop offset="0%" stop-color="#e1b7ff" stop-opacity=".92"/>
      <stop offset="70%" stop-color="#e1b7ff" stop-opacity=".16"/>
      <stop offset="100%" stop-color="#e1b7ff" stop-opacity="0"/>
    </radialGradient>
  </defs>
  <rect width="360" height="160" rx="28" fill="url(#bg-cinder-loop)"/>
  <rect x="16" y="16" width="328" height="128" rx="22" fill="none" stroke="#fff7ff" stroke-opacity=".08"/>
  <circle cx="70" cy="118" r="38" fill="#e1b7ff" fill-opacity=".08"/>
  <circle cx="286" cy="42" r="50" fill="url(#glow-cinder-loop)"/>
  <g transform="translate(24 30)">
    <circle cx="56" cy="50" r="42" fill="url(#panel-cinder-loop)" fill-opacity=".11"/>
    <circle cx="56" cy="50" r="42" fill="none" stroke="#e1b7ff" stroke-opacity=".24"/>
    <path d="M31 51c0-17 13-30 25-30s25 13 25 30-13 30-25 30-25-13-25-30z" fill="none" stroke="#f0c7ff" stroke-width="8"/>
    <path d="M37 47c4-9 11-14 20-14 10 0 16 3 24 10" fill="none" stroke="#ffd3a0" stroke-width="4" stroke-linecap="round" stroke-opacity=".72"/>
    <circle cx="79" cy="33" r="4" fill="#ffd3a0"/>
    <circle cx="31" cy="66" r="3" fill="#ffd3a0" fill-opacity=".8"/>
  </g>
  <path d="M132 44h160" stroke="#fff2e6" stroke-opacity=".14" stroke-width="2" stroke-linecap="round"/>
  <text x="132" y="72" fill="#fdf8ff" font-family="system-ui, sans-serif" font-size="30" font-weight="800" letter-spacing="1.6">CINDER</text>
  <text x="132" y="108" fill="#e3b6ff" font-family="system-ui, sans-serif" font-size="22" font-weight="700" letter-spacing="2.8">LOOP</text>
</svg>
