<svg xmlns="http://www.w3.org/2000/svg" viewBox="0 0 360 160" role="img" aria-label="Delta Bloom">
  <defs>
    <linearGradient id="bg" x1="0" y1="0" x2="1" y2="1">
      <stop offset="0%" stop-color="#0b1613"/>
      <stop offset="55%" stop-color="#1b3f38"/>
      <stop offset="100%" stop-color="#5b7f4d"/>
    </linearGradient>
    <radialGradient id="halo" cx="0.5" cy="0.42" r="0.42">
      <stop offset="0%" stop-color="#ffd0b6" stop-opacity=".28"/>
      <stop offset="60%" stop-color="#8ef0c1" stop-opacity=".12"/>
      <stop offset="100%" stop-color="#8ef0c1" stop-opacity="0"/>
    </radialGradient>
    <linearGradient id="bloom" x1="0" y1="0" x2="1" y2="1">
      <stop offset="0%" stop-color="#ffe3ca"/>
      <stop offset="100%" stop-color="#84efbf"/>
    </linearGradient>
  </defs>
  <rect width="360" height="160" rx="28" fill="url(#bg)"/>
  <rect x="14" y="14" width="332" height="132" rx="22" fill="none" stroke="#fff0e4" stroke-opacity=".11"/>
  <circle cx="180" cy="62" r="44" fill="url(#halo)"/>
  <circle cx="180" cy="62" r="34" fill="#213a2f" opacity=".68" stroke="#fff0e4" stroke-opacity=".18"/>
  <path d="M180 40v42" stroke="#ffe3ca" stroke-width="3.5" stroke-linecap="round"/>
  <path d="M156 78l24-32 24 32" fill="none" stroke="url(#bloom)" stroke-width="4" stroke-linejoin="round" stroke-linecap="round"/>
  <path d="M162 76c7 0 11 4 18 12 7-8 11-12 18-12" fill="none" stroke="#ffe3ca" stroke-width="3.5" stroke-linecap="round" stroke-linejoin="round"/>
  <path d="M150 86c16-7 28-7 30 0s14 7 30 0" fill="none" stroke="#84efbf" stroke-width="3.5" stroke-linecap="round" stroke-linejoin="round"/>
  <circle cx="180" cy="62" r="5.5" fill="#ffe3ca"/>
  <circle cx="166" cy="80" r="3" fill="#84efbf"/>
  <circle cx="194" cy="80" r="3" fill="#84efbf"/>
  <text x="180" y="120" text-anchor="middle" fill="#fffaf5" font-size="22" font-weight="700" letter-spacing="2.1" font-family="system-ui, sans-serif">DELTA BLOOM</text>
  <path d="M128 132h104" stroke="#ffe3ca" stroke-opacity=".38" stroke-width="2.5" stroke-linecap="round"/>
</svg>
