<svg xmlns="http://www.w3.org/2000/svg" viewBox="0 0 360 160" role="img" aria-label="Glacier Node">
  <defs>
    <linearGradient id="bg" x1="0" y1="0" x2="1" y2="1">
      <stop offset="0%" stop-color="#07131d"/>
      <stop offset="55%" stop-color="#0e2b41"/>
      <stop offset="100%" stop-color="#1f6c97"/>
    </linearGradient>
    <radialGradient id="halo" cx="0.48" cy="0.4" r="0.42">
      <stop offset="0%" stop-color="#c7f4ff" stop-opacity=".34"/>
      <stop offset="58%" stop-color="#7fdcff" stop-opacity=".12"/>
      <stop offset="100%" stop-color="#7fdcff" stop-opacity="0"/>
    </radialGradient>
    <linearGradient id="stone" x1="0" y1="0" x2="1" y2="1">
      <stop offset="0%" stop-color="#dff8ff"/>
      <stop offset="100%" stop-color="#79d2ff"/>
    </linearGradient>
  </defs>
  <rect width="360" height="160" rx="28" fill="url(#bg)"/>
  <rect x="14" y="14" width="332" height="132" rx="22" fill="none" stroke="#dff8ff" stroke-opacity=".12"/>
  <circle cx="180" cy="62" r="44" fill="url(#halo)"/>
  <circle cx="180" cy="62" r="34" fill="#0e3d5d" opacity=".72" stroke="#dff8ff" stroke-opacity=".2"/>
  <path d="M180 32l28 16v32l-28 16-28-16V48z" fill="url(#stone)" opacity=".18"/>
  <path d="M180 36l22 12v24l-22 12-22-12V48z" fill="none" stroke="url(#stone)" stroke-width="4" stroke-linejoin="round"/>
  <path d="M180 46v32M163 56l17 10 17-10" fill="none" stroke="#dff8ff" stroke-opacity=".82" stroke-width="2.5" stroke-linecap="round" stroke-linejoin="round"/>
  <circle cx="180" cy="62" r="5.5" fill="#dff8ff"/>
  <circle cx="163" cy="56" r="3" fill="#9be4ff"/>
  <circle cx="197" cy="56" r="3" fill="#9be4ff"/>
  <circle cx="180" cy="78" r="3" fill="#9be4ff"/>
  <text x="180" y="120" text-anchor="middle" fill="#f8fdff" font-size="22" font-weight="700" letter-spacing="2.1" font-family="system-ui, sans-serif">GLACIER NODE</text>
  <path d="M126 132h108" stroke="#9be4ff" stroke-opacity=".42" stroke-width="2.5" stroke-linecap="round"/>
</svg>
