<svg xmlns="http://www.w3.org/2000/svg" viewBox="0 0 360 160" role="img" aria-label="Horizon Lab">
  <defs>
    <linearGradient id="bg-horizon-lab" x1="0" y1="0" x2="1" y2="1">
      <stop offset="0%" stop-color="#161825"/>
      <stop offset="52%" stop-color="#23354b"/>
      <stop offset="100%" stop-color="#7e6a37"/>
    </linearGradient>
    <linearGradient id="panel-horizon-lab" x1="0" y1="0" x2="1" y2="1">
      <stop offset="0%" stop-color="#f3fbff"/>
      <stop offset="100%" stop-color="#85d6ff"/>
    </linearGradient>
    <radialGradient id="glow-horizon-lab" cx="50%" cy="34%" r="70%">
      <stop offset="0%" stop-color="#ffd879" stop-opacity=".88"/>
      <stop offset="75%" stop-color="#ffd879" stop-opacity=".16"/>
      <stop offset="100%" stop-color="#ffd879" stop-opacity="0"/>
    </radialGradient>
  </defs>
  <rect width="360" height="160" rx="28" fill="url(#bg-horizon-lab)"/>
  <rect x="16" y="16" width="328" height="128" rx="22" fill="none" stroke="#fff7db" stroke-opacity=".08"/>
  <circle cx="286" cy="42" r="52" fill="url(#glow-horizon-lab)"/>
  <circle cx="72" cy="116" r="30" fill="#ffd879" fill-opacity=".08"/>
  <g transform="translate(24 30)">
    <circle cx="56" cy="50" r="42" fill="url(#panel-horizon-lab)" fill-opacity=".11"/>
    <circle cx="56" cy="50" r="42" fill="none" stroke="#9edfff" stroke-opacity=".26"/>
    <path d="M28 65h56" stroke="#ffd879" stroke-width="6.5" stroke-linecap="round"/>
    <path d="M34 65c5-14 16-22 22-22s17 8 22 22" fill="none" stroke="#97dcff" stroke-width="5.5" stroke-linecap="round"/>
    <circle cx="56" cy="42" r="6.5" fill="#fff0a8"/>
    <path d="M47 64v-9" stroke="#fff7de" stroke-width="3.5" stroke-linecap="round"/>
    <path d="M65 64v-9" stroke="#fff7de" stroke-width="3.5" stroke-linecap="round"/>
  </g>
  <path d="M132 44h160" stroke="#fff7db" stroke-opacity=".14" stroke-width="2" stroke-linecap="round"/>
  <text x="132" y="72" fill="#fbf8ff" font-family="system-ui, sans-serif" font-size="30" font-weight="800" letter-spacing="1.4">HORIZON</text>
  <text x="132" y="108" fill="#ffd879" font-family="system-ui, sans-serif" font-size="22" font-weight="700" letter-spacing="2.8">LAB</text>
</svg>
