<svg xmlns="http://www.w3.org/2000/svg" viewBox="0 0 360 160" role="img" aria-label="Kelp Vector">
  <defs>
    <linearGradient id="bg" x1="0" y1="0" x2="1" y2="1">
      <stop offset="0%" stop-color="#081610"/>
      <stop offset="55%" stop-color="#17392a"/>
      <stop offset="100%" stop-color="#2c6f4d"/>
    </linearGradient>
    <radialGradient id="halo" cx="0.5" cy="0.42" r="0.42">
      <stop offset="0%" stop-color="#caffde" stop-opacity=".3"/>
      <stop offset="60%" stop-color="#84f2b0" stop-opacity=".12"/>
      <stop offset="100%" stop-color="#84f2b0" stop-opacity="0"/>
    </radialGradient>
    <linearGradient id="frond" x1="0" y1="0" x2="1" y2="1">
      <stop offset="0%" stop-color="#c3ffe2"/>
      <stop offset="100%" stop-color="#72e7a3"/>
    </linearGradient>
  </defs>
  <rect width="360" height="160" rx="28" fill="url(#bg)"/>
  <rect x="14" y="14" width="332" height="132" rx="22" fill="none" stroke="#d2ffe6" stroke-opacity=".12"/>
  <circle cx="180" cy="62" r="44" fill="url(#halo)"/>
  <circle cx="180" cy="62" r="34" fill="#0e3a2a" opacity=".72" stroke="#d2ffe6" stroke-opacity=".2"/>
  <path d="M164 92c2-18 8-36 18-54 10 18 16 36 18 54" fill="none" stroke="url(#frond)" stroke-width="4" stroke-linecap="round" stroke-linejoin="round"/>
  <path d="M172 94c-2-14 0-26 7-38 7 10 11 22 11 36" fill="none" stroke="#c3ffe2" stroke-width="4" stroke-linecap="round" stroke-linejoin="round"/>
  <path d="M190 90c7-8 12-18 16-30 8 11 9 24 4 38" fill="none" stroke="#84f2b0" stroke-width="4" stroke-linecap="round" stroke-linejoin="round"/>
  <path d="M180 42v42" stroke="#d2ffe6" stroke-width="3" stroke-linecap="round"/>
  <path d="M180 40l-10 10m10-10l10 10" fill="none" stroke="#84f2b0" stroke-width="3" stroke-linecap="round" stroke-linejoin="round"/>
  <circle cx="180" cy="62" r="5.5" fill="#d2ffe6"/>
  <circle cx="172" cy="74" r="3" fill="#84f2b0"/>
  <circle cx="190" cy="72" r="3" fill="#84f2b0"/>
  <text x="180" y="120" text-anchor="middle" fill="#f7fff9" font-size="22" font-weight="700" letter-spacing="2.1" font-family="system-ui, sans-serif">KELP VECTOR</text>
  <path d="M130 132h100" stroke="#84f2b0" stroke-opacity=".42" stroke-width="2.5" stroke-linecap="round"/>
</svg>
