<svg xmlns="http://www.w3.org/2000/svg" viewBox="0 0 360 160" role="img" aria-label="Lumen Ship">
  <defs>
    <linearGradient id="bg-lumen-ship" x1="0" y1="0" x2="1" y2="1">
      <stop offset="0%" stop-color="#141615"/>
      <stop offset="52%" stop-color="#27312d"/>
      <stop offset="100%" stop-color="#8a6a2f"/>
    </linearGradient>
    <linearGradient id="panel-lumen-ship" x1="0" y1="0" x2="1" y2="1">
      <stop offset="0%" stop-color="#fff2c2"/>
      <stop offset="100%" stop-color="#ffd15f"/>
    </linearGradient>
    <radialGradient id="glow-lumen-ship" cx="50%" cy="32%" r="70%">
      <stop offset="0%" stop-color="#ffe89b" stop-opacity=".92"/>
      <stop offset="75%" stop-color="#ffe89b" stop-opacity=".16"/>
      <stop offset="100%" stop-color="#ffe89b" stop-opacity="0"/>
    </radialGradient>
  </defs>
  <rect width="360" height="160" rx="28" fill="url(#bg-lumen-ship)"/>
  <rect x="16" y="16" width="328" height="128" rx="22" fill="none" stroke="#fff8d9" stroke-opacity=".08"/>
  <circle cx="284" cy="42" r="52" fill="url(#glow-lumen-ship)"/>
  <circle cx="70" cy="114" r="32" fill="#ffe89b" fill-opacity=".08"/>
  <g transform="translate(24 30)">
    <circle cx="56" cy="50" r="42" fill="url(#panel-lumen-ship)" fill-opacity=".11"/>
    <circle cx="56" cy="50" r="42" fill="none" stroke="#ffe89b" stroke-opacity=".26"/>
    <path d="M31 66l25-34 25 34-9 14H40z" fill="#fff0be" fill-opacity=".9"/>
    <path d="M56 30v31" stroke="#fff6d8" stroke-width="6" stroke-linecap="round"/>
    <path d="M48 60h16" stroke="#ffd66a" stroke-width="4.5" stroke-linecap="round"/>
    <path d="M37 79c7 5 16 7 19 7s12-2 19-7" fill="none" stroke="#ffd66a" stroke-width="4.5" stroke-linecap="round"/>
    <path d="M46 41h20" stroke="#fffef1" stroke-opacity=".7" stroke-width="3" stroke-linecap="round"/>
  </g>
  <path d="M132 44h160" stroke="#fff8d9" stroke-opacity=".14" stroke-width="2" stroke-linecap="round"/>
  <text x="132" y="72" fill="#fff9eb" font-family="system-ui, sans-serif" font-size="30" font-weight="800" letter-spacing="1.6">LUMEN</text>
  <text x="132" y="108" fill="#ffd669" font-family="system-ui, sans-serif" font-size="22" font-weight="700" letter-spacing="2.8">SHIP</text>
</svg>
