<svg xmlns="http://www.w3.org/2000/svg" viewBox="0 0 360 160" role="img" aria-label="Polaris Peak">
  <defs>
    <linearGradient id="bg" x1="0" y1="0" x2="1" y2="1">
      <stop offset="0%" stop-color="#0d1730"/>
      <stop offset="100%" stop-color="#3b5c9d"/>
    </linearGradient>
    <linearGradient id="accent" x1="0" y1="0" x2="1" y2="0">
      <stop offset="0%" stop-color="#f6d88e"/>
      <stop offset="100%" stop-color="#8fe8ff"/>
    </linearGradient>
  </defs>
  <rect width="360" height="160" rx="28" fill="url(#bg)"/>
  <circle cx="60" cy="44" r="18" fill="#8fe8ff" opacity=".07"/>
  <circle cx="304" cy="116" r="26" fill="#f6d88e" opacity=".08"/>
  <rect x="28" y="28" width="104" height="104" rx="30" fill="#ffffff" opacity=".04"/>
  <rect x="28" y="28" width="104" height="104" rx="30" fill="none" stroke="#ffffff" stroke-opacity=".12" stroke-width="1.5"/>
  <path d="M42 110l27-32 16 18 18-22 19 20 18-22 18 38z" fill="#f3f8ff" opacity=".1"/>
  <path d="M42 110l27-32 16 18 18-22 19 20 18-22 18 38" fill="none" stroke="#f6d88e" stroke-width="6" stroke-linecap="round" stroke-linejoin="round"/>
  <path d="M80 44l5 12 12 5-12 5-5 12-5-12-12-5 12-5z" fill="#8fe8ff"/>
  <path d="M46 116h68" stroke="#b9dbff" stroke-opacity=".45" stroke-width="3" stroke-linecap="round"/>
  <text x="154" y="74" fill="#f7fbff" font-family="system-ui, sans-serif" font-size="20" font-weight="800" letter-spacing="1.1">POLARIS PEAK</text>
  <path d="M154 96h146" stroke="url(#accent)" stroke-width="4" stroke-linecap="round"/>
</svg>
