<svg xmlns="http://www.w3.org/2000/svg" viewBox="0 0 360 160" role="img" aria-label="Solstice Systems">
  <defs>
    <linearGradient id="bg" x1="0" y1="0" x2="1" y2="1">
      <stop offset="0%" stop-color="#25110a"/>
      <stop offset="100%" stop-color="#b15d10"/>
    </linearGradient>
    <linearGradient id="accent" x1="0" y1="0" x2="1" y2="0">
      <stop offset="0%" stop-color="#ffe28d"/>
      <stop offset="100%" stop-color="#fff3c7"/>
    </linearGradient>
  </defs>
  <rect width="360" height="160" rx="28" fill="url(#bg)"/>
  <circle cx="58" cy="44" r="18" fill="#ffe28d" opacity=".08"/>
  <circle cx="304" cy="114" r="28" fill="#fff3c7" opacity=".08"/>
  <rect x="28" y="28" width="104" height="104" rx="30" fill="#ffffff" opacity=".04"/>
  <rect x="28" y="28" width="104" height="104" rx="30" fill="none" stroke="#ffffff" stroke-opacity=".12" stroke-width="1.5"/>
  <circle cx="80" cy="74" r="24" fill="#ffe28d" opacity=".2"/>
  <circle cx="80" cy="74" r="14" fill="#fff4c8"/>
  <path d="M80 42v12M80 94v12M48 74H60M100 74h12M57 51l8 8M95 89l8 8M57 97l8-8M95 59l8-8" stroke="#fff1bf" stroke-width="5" stroke-linecap="round"/>
  <path d="M50 92c12-8 22-12 30-12s18 4 30 12" fill="none" stroke="#fff7d2" stroke-width="6" stroke-linecap="round"/>
  <text x="154" y="74" fill="#fff8ec" font-family="system-ui, sans-serif" font-size="20" font-weight="800" letter-spacing="1.1">SOLSTICE SYSTEMS</text>
  <path d="M154 96h146" stroke="url(#accent)" stroke-width="4" stroke-linecap="round"/>
</svg>
