<svg xmlns="http://www.w3.org/2000/svg" viewBox="0 0 360 160" role="img" aria-label="Umbra Dynamics">
  <defs>
    <linearGradient id="bg-umbra-dynamics" x1="0" y1="0" x2="1" y2="1">
      <stop offset="0%" stop-color="#101018"/>
      <stop offset="52%" stop-color="#232033"/>
      <stop offset="100%" stop-color="#4b4062"/>
    </linearGradient>
    <linearGradient id="panel-umbra-dynamics" x1="0" y1="0" x2="1" y2="1">
      <stop offset="0%" stop-color="#edf4ff"/>
      <stop offset="100%" stop-color="#9ddcff"/>
    </linearGradient>
    <radialGradient id="glow-umbra-dynamics" cx="50%" cy="34%" r="70%">
      <stop offset="0%" stop-color="#a1d9ff" stop-opacity=".84"/>
      <stop offset="75%" stop-color="#a1d9ff" stop-opacity=".16"/>
      <stop offset="100%" stop-color="#a1d9ff" stop-opacity="0"/>
    </radialGradient>
  </defs>
  <rect width="360" height="160" rx="28" fill="url(#bg-umbra-dynamics)"/>
  <rect x="16" y="16" width="328" height="128" rx="22" fill="none" stroke="#f4f7ff" stroke-opacity=".08"/>
  <circle cx="290" cy="40" r="52" fill="url(#glow-umbra-dynamics)"/>
  <circle cx="84" cy="116" r="30" fill="#a1d9ff" fill-opacity=".08"/>
  <g transform="translate(24 30)">
    <circle cx="56" cy="50" r="42" fill="url(#panel-umbra-dynamics)" fill-opacity=".11"/>
    <circle cx="56" cy="50" r="42" fill="none" stroke="#a1d9ff" stroke-opacity=".26"/>
    <circle cx="50" cy="50" r="22" fill="#14111d"/>
    <circle cx="62" cy="46" r="22" fill="#c7e6ff"/>
    <circle cx="50" cy="50" r="22" fill="none" stroke="#f5faff" stroke-opacity=".22"/>
    <path d="M34 72c8-8 18-12 29-12 12 0 21 3 31 9" fill="none" stroke="#ffd78c" stroke-width="4.5" stroke-linecap="round"/>
    <path d="M34 36c8-8 16-12 24-14" fill="none" stroke="#f5faff" stroke-width="4" stroke-linecap="round" stroke-opacity=".7"/>
    <path d="M72 31c6 4 10 9 12 15" fill="none" stroke="#7f6aa5" stroke-width="4" stroke-linecap="round" stroke-opacity=".75"/>
  </g>
  <path d="M132 44h160" stroke="#f4f7ff" stroke-opacity=".14" stroke-width="2" stroke-linecap="round"/>
  <text x="132" y="72" fill="#fbf8ff" font-family="system-ui, sans-serif" font-size="30" font-weight="800" letter-spacing="1.6">UMBRA</text>
  <text x="132" y="108" fill="#b7d9ff" font-family="system-ui, sans-serif" font-size="22" font-weight="700" letter-spacing="2.6">DYNAMICS</text>
</svg>
